<svg xmlns="http://www.w3.org/2000/svg" xmlns:xlink="http://www.w3.org/1999/xlink" viewBox="0 0 800 520"><defs><style>.cls-1,.cls-15{fill:#4d9cd7;}.cls-1,.cls-19,.cls-2,.cls-21,.cls-29,.cls-30,.cls-31{stroke:#000;}.cls-1,.cls-12,.cls-19,.cls-2,.cls-21,.cls-29,.cls-30,.cls-31,.cls-4,.cls-6{stroke-miterlimit:10;}.cls-10,.cls-2,.cls-3,.cls-6,.cls-7{fill:#fff;}.cls-12,.cls-19,.cls-4{fill:none;}.cls-4,.cls-6{stroke:#670080;}.cls-12,.cls-4,.cls-6{stroke-width:2px;}.cls-5{fill:#670080;}.cls-7,.cls-8{font-size:12.94px;}.cls-10,.cls-7,.cls-8{font-family:ArialMT, Arial;}.cls-8,.cls-9{fill:#666;}.cls-10,.cls-9{font-size:15.09px;}.cls-9{font-family:Arial-BoldMT, Arial;font-weight:700;}.cls-11{fill:#326de6;}.cls-12{stroke:#ccc;}.cls-13{fill:#16acc5;}.cls-14{fill:#91d5e2;}.cls-16{clip-path:url(#clip-path);}.cls-17{fill:#2b75c0;}.cls-18{fill:#c5dde7;}.cls-20{clip-path:url(#clip-path-2);}.cls-21{fill:#c4dde7;}.cls-22{fill:#8dbfe4;}.cls-23{clip-path:url(#clip-path-3);}.cls-24{clip-path:url(#clip-path-4);}.cls-25{clip-path:url(#clip-path-5);}.cls-26{clip-path:url(#clip-path-6);}.cls-27{clip-path:url(#clip-path-7);}.cls-28{clip-path:url(#clip-path-8);}.cls-29{fill:#6ec6f3;}.cls-30{fill:#105d89;}.cls-31{fill:#2ab7ff;}.cls-32{opacity:0.5;}.cls-33{fill:#0e70be;}.cls-34{fill:#096f8e;}.cls-35{clip-path:url(#clip-path-9);}.cls-36{clip-path:url(#clip-path-10);}.cls-37{clip-path:url(#clip-path-11);}.cls-38{clip-path:url(#clip-path-12);}.cls-39{clip-path:url(#clip-path-13);}.cls-40{clip-path:url(#clip-path-14);}.cls-41{clip-path:url(#clip-path-15);}.cls-42{clip-path:url(#clip-path-16);}.cls-43{clip-path:url(#clip-path-17);}.cls-44{clip-path:url(#clip-path-18);}.cls-45{clip-path:url(#clip-path-19);}.cls-46{clip-path:url(#clip-path-20);}.cls-47{clip-path:url(#clip-path-21);}.cls-48{clip-path:url(#clip-path-22);}.cls-49{clip-path:url(#clip-path-23);}.cls-50{clip-path:url(#clip-path-24);}.cls-51{clip-path:url(#clip-path-25);}.cls-52{clip-path:url(#clip-path-26);}.cls-53{clip-path:url(#clip-path-27);}.cls-54{clip-path:url(#clip-path-28);}.cls-55{clip-path:url(#clip-path-29);}.cls-56{clip-path:url(#clip-path-30);}.cls-57{clip-path:url(#clip-path-31);}.cls-58{clip-path:url(#clip-path-32);}.cls-59{fill:#ccc;}</style><clipPath id="clip-path"><path class="cls-1" d="M162.84,406.37s-4.45,1.3-4.9,2.41,1.41,5.2,4.57,6.74,11.13,1.82,15.53-2.43,3.4-7.54,5.24-7.63,2.63,1.72,5.38.46a4.28,4.28,0,0,0-4.6-2.43,3.7,3.7,0,0,0,1.28-4.85,4.71,4.71,0,0,0-1.27.68Z"/></clipPath><clipPath id="clip-path-2"><path class="cls-1" d="M160.4,398.84s-3.21.85-3.41,2.11.69,5.79,6.76,7,11.67,0,14.5-3.93a13.33,13.33,0,0,0,2.76-7.8,1.69,1.69,0,0,1,1.62-1.95c1.63-.29,3.15.2,4.29-1.56,0,0-3-2-5.26-.22a3.34,3.34,0,0,0-.72-4.94s-1.23.71-1.3,3.15.84,2.93-1.11,4.06Z"/></clipPath><clipPath id="clip-path-3"><path class="cls-1" d="M166.94,400.2s-3.22.84-3.42,2.11.69,5.79,6.76,7,11.67,0,14.5-3.93a13.27,13.27,0,0,0,2.76-7.8,1.69,1.69,0,0,1,1.62-2c1.63-.29,3.16.19,4.29-1.56,0,0-3-2-5.26-.23a3.34,3.34,0,0,0-.72-4.94s-1.23.72-1.3,3.16.84,2.93-1.1,4.06Z"/></clipPath><clipPath id="clip-path-4"><path class="cls-1" d="M174.61,409.42s-4.45,1.3-4.9,2.41,1.41,5.2,4.57,6.74,11.13,1.82,15.53-2.43,3.4-7.53,5.25-7.62,2.62,1.71,5.37.45a4.26,4.26,0,0,0-4.59-2.42,3.72,3.72,0,0,0,1.27-4.86,4.55,4.55,0,0,0-1.27.69Z"/></clipPath><clipPath id="clip-path-5"><path class="cls-1" d="M175.59,402.24s-3.22.84-3.41,2.11.68,5.78,6.76,7,11.66,0,14.49-3.93a13.19,13.19,0,0,0,2.76-7.8,1.69,1.69,0,0,1,1.63-1.95c1.62-.3,3.15.19,4.29-1.56,0,0-3.06-2-5.27-.23a3.34,3.34,0,0,0-.71-4.94s-1.24.71-1.3,3.15.84,2.93-1.11,4.07Z"/></clipPath><clipPath id="clip-path-6"><ellipse class="cls-2" cx="185.07" cy="407.49" rx="1.28" ry="1.14"/></clipPath><clipPath id="clip-path-7"><ellipse class="cls-2" cx="182.6" cy="415.23" rx="1.19" ry="1.13"/></clipPath><clipPath id="clip-path-8"><ellipse class="cls-2" cx="168.88" cy="412.88" rx="1.2" ry="1.05"/></clipPath><clipPath id="clip-path-9"><path class="cls-1" d="M346,406.37s-4.45,1.3-4.9,2.41,1.41,5.2,4.57,6.74,11.14,1.82,15.53-2.43,3.4-7.54,5.25-7.63,2.62,1.72,5.37.46a4.27,4.27,0,0,0-4.59-2.43,3.7,3.7,0,0,0,1.27-4.85,4.71,4.71,0,0,0-1.27.68Z"/></clipPath><clipPath id="clip-path-10"><path class="cls-1" d="M343.57,398.84s-3.22.85-3.42,2.11.69,5.79,6.76,7,11.67,0,14.5-3.93a13.25,13.25,0,0,0,2.76-7.8,1.69,1.69,0,0,1,1.62-1.95c1.63-.29,3.15.2,4.29-1.56,0,0-3.05-2-5.26-.22a3.34,3.34,0,0,0-.72-4.94s-1.23.71-1.3,3.15.84,2.93-1.11,4.06Z"/></clipPath><clipPath id="clip-path-11"><path class="cls-1" d="M350.1,400.2s-3.22.84-3.42,2.11.69,5.79,6.76,7,11.67,0,14.5-3.93a13.27,13.27,0,0,0,2.76-7.8,1.69,1.69,0,0,1,1.62-2c1.63-.29,3.16.19,4.29-1.56,0,0-3.05-2-5.26-.23a3.34,3.34,0,0,0-.72-4.94s-1.23.72-1.3,3.16.84,2.93-1.1,4.06Z"/></clipPath><clipPath id="clip-path-12"><path class="cls-1" d="M357.77,409.42s-4.45,1.3-4.9,2.41,1.41,5.2,4.57,6.74,11.14,1.82,15.53-2.43,3.4-7.53,5.25-7.62,2.62,1.71,5.37.45a4.26,4.26,0,0,0-4.59-2.42,3.72,3.72,0,0,0,1.27-4.86,4.55,4.55,0,0,0-1.27.69Z"/></clipPath><clipPath id="clip-path-13"><path class="cls-1" d="M358.75,402.24s-3.22.84-3.41,2.11.68,5.78,6.76,7,11.66,0,14.49-3.93a13.19,13.19,0,0,0,2.76-7.8,1.69,1.69,0,0,1,1.63-1.95c1.62-.3,3.15.19,4.29-1.56,0,0-3.06-2-5.27-.23a3.33,3.33,0,0,0-.71-4.94s-1.24.71-1.3,3.15.84,2.93-1.11,4.07Z"/></clipPath><clipPath id="clip-path-14"><ellipse class="cls-2" cx="368.23" cy="407.49" rx="1.28" ry="1.14"/></clipPath><clipPath id="clip-path-15"><ellipse class="cls-2" cx="365.76" cy="415.23" rx="1.19" ry="1.13"/></clipPath><clipPath id="clip-path-16"><ellipse class="cls-2" cx="352.04" cy="412.88" rx="1.2" ry="1.05"/></clipPath><clipPath id="clip-path-17"><path class="cls-1" d="M532.39,406.37s-4.44,1.3-4.9,2.41,1.41,5.2,4.57,6.74,11.14,1.82,15.54-2.43,3.4-7.54,5.24-7.63,2.62,1.72,5.37.46a4.27,4.27,0,0,0-4.59-2.43,3.7,3.7,0,0,0,1.27-4.85,4.7,4.7,0,0,0-1.26.68Z"/></clipPath><clipPath id="clip-path-18"><path class="cls-1" d="M530,398.84s-3.22.85-3.41,2.11.68,5.79,6.76,7S545,408,547.8,404a13.18,13.18,0,0,0,2.76-7.8,1.7,1.7,0,0,1,1.63-1.95c1.62-.29,3.15.2,4.29-1.56,0,0-3.06-2-5.27-.22a3.34,3.34,0,0,0-.71-4.94s-1.24.71-1.3,3.15.84,2.93-1.11,4.06Z"/></clipPath><clipPath id="clip-path-19"><path class="cls-1" d="M536.49,400.2s-3.22.84-3.41,2.11.68,5.79,6.76,7,11.66,0,14.49-3.93a13.19,13.19,0,0,0,2.76-7.8,1.7,1.7,0,0,1,1.63-2c1.62-.29,3.15.19,4.29-1.56,0,0-3.06-2-5.27-.23a3.33,3.33,0,0,0-.71-4.94s-1.24.72-1.3,3.16.84,2.93-1.11,4.06Z"/></clipPath><clipPath id="clip-path-20"><path class="cls-1" d="M544.16,409.42s-4.44,1.3-4.9,2.41,1.41,5.2,4.57,6.74,11.14,1.82,15.54-2.43,3.4-7.53,5.24-7.62,2.62,1.71,5.37.45a4.26,4.26,0,0,0-4.59-2.42,3.72,3.72,0,0,0,1.27-4.86,4.53,4.53,0,0,0-1.26.69Z"/></clipPath><clipPath id="clip-path-21"><path class="cls-1" d="M545.15,402.24s-3.22.84-3.42,2.11.69,5.78,6.76,7,11.67,0,14.5-3.93a13.27,13.27,0,0,0,2.76-7.8,1.68,1.68,0,0,1,1.62-1.95c1.63-.3,3.15.19,4.29-1.56,0,0-3-2-5.26-.23a3.34,3.34,0,0,0-.72-4.94s-1.23.71-1.3,3.15.84,2.93-1.11,4.07Z"/></clipPath><clipPath id="clip-path-22"><ellipse class="cls-2" cx="554.62" cy="407.49" rx="1.28" ry="1.14"/></clipPath><clipPath id="clip-path-23"><ellipse class="cls-2" cx="552.15" cy="415.23" rx="1.19" ry="1.13"/></clipPath><clipPath id="clip-path-24"><ellipse class="cls-2" cx="538.43" cy="412.88" rx="1.2" ry="1.05"/></clipPath><clipPath id="clip-path-25"><path class="cls-1" d="M234.47,182.49s-4.45,1.3-4.9,2.41,1.4,5.2,4.57,6.73,11.13,1.82,15.53-2.42,3.4-7.54,5.24-7.63,2.62,1.71,5.38.46a4.29,4.29,0,0,0-4.6-2.43,3.7,3.7,0,0,0,1.28-4.85,4.71,4.71,0,0,0-1.27.68Z"/></clipPath><clipPath id="clip-path-26"><path class="cls-1" d="M232,175s-3.21.85-3.41,2.11.68,5.79,6.76,7,11.67,0,14.49-3.93a13.3,13.3,0,0,0,2.77-7.8,1.69,1.69,0,0,1,1.62-2c1.63-.29,3.15.2,4.29-1.56,0,0-3.05-2-5.26-.23a3.34,3.34,0,0,0-.72-4.94s-1.23.72-1.3,3.16.84,2.93-1.11,4.06Z"/></clipPath><clipPath id="clip-path-27"><path class="cls-1" d="M238.56,176.32s-3.21.84-3.41,2.11.68,5.79,6.76,7,11.67,0,14.49-3.93a13.32,13.32,0,0,0,2.77-7.8,1.69,1.69,0,0,1,1.62-1.95c1.63-.29,3.15.19,4.29-1.56,0,0-3.05-2-5.26-.23a3.34,3.34,0,0,0-.72-4.94s-1.23.72-1.3,3.15.84,2.93-1.11,4.07Z"/></clipPath><clipPath id="clip-path-28"><path class="cls-1" d="M246.24,185.54s-4.45,1.3-4.9,2.41,1.4,5.2,4.57,6.74,11.13,1.82,15.53-2.43,3.4-7.54,5.24-7.62,2.62,1.71,5.38.45a4.27,4.27,0,0,0-4.6-2.42,3.72,3.72,0,0,0,1.28-4.86,4.55,4.55,0,0,0-1.27.69Z"/></clipPath><clipPath id="clip-path-29"><path class="cls-1" d="M247.22,178.36s-3.22.84-3.41,2.11.68,5.78,6.76,7,11.66,0,14.49-3.94a13.15,13.15,0,0,0,2.76-7.79,1.69,1.69,0,0,1,1.63-1.95c1.62-.3,3.15.19,4.29-1.56,0,0-3.06-2-5.27-.23a3.34,3.34,0,0,0-.71-4.94s-1.24.71-1.3,3.15.83,2.93-1.11,4.07Z"/></clipPath><clipPath id="clip-path-30"><ellipse class="cls-2" cx="256.7" cy="183.61" rx="1.28" ry="1.14"/></clipPath><clipPath id="clip-path-31"><ellipse class="cls-2" cx="254.23" cy="191.35" rx="1.19" ry="1.13"/></clipPath><clipPath id="clip-path-32"><ellipse class="cls-2" cx="240.51" cy="189" rx="1.2" ry="1.05"/></clipPath></defs><title>8</title><g id="Layer_10" data-name="Layer 10"><rect class="cls-3" width="800" height="520"/><rect class="cls-4" x="112.23" y="374.78" width="575.54" height="118.91"/><rect class="cls-4" x="112.23" y="26.31" width="575.54" height="225.43"/><rect class="cls-5" x="137.41" y="73.38" width="525.17" height="162.67"/><rect class="cls-3" x="176.45" y="116.05" width="145.26" height="106.25"/><rect class="cls-3" x="461.57" y="116.05" width="145.26" height="106.25"/><rect class="cls-6" x="137.41" y="321.11" width="157.3" height="127.16"/><rect class="cls-6" x="321.35" y="321.11" width="157.3" height="127.16"/><rect class="cls-6" x="505.28" y="321.11" width="157.3" height="127.16"/><rect class="cls-5" x="137.41" y="321.11" width="90.83" height="40.87"/><rect class="cls-5" x="321.35" y="321.11" width="90.83" height="40.87"/><rect class="cls-5" x="505.28" y="321.11" width="90.83" height="40.87"/><text class="cls-7" transform="translate(392.81 169.99)">Or</text><text class="cls-7" transform="translate(167.14 346.04)">Node</text><text class="cls-8" transform="translate(228.95 139.03)">Swarm</text><text class="cls-8" transform="translate(501.11 139.03)">Kubernetes</text><text class="cls-7" transform="translate(351.3 346.04)">Node</text><text class="cls-7" transform="translate(535.23 346.04)">Node</text><text class="cls-9" transform="translate(305.82 476.65)">Docker Enterprise Cluster</text><text class="cls-9" transform="translate(263.46 55.63)">Docker Enterprise Management Plane</text><text class="cls-10" transform="translate(349.42 102.7)">App Scheduler</text><path id="path10349" class="cls-11" d="M270.49,390.89a3.1,3.1,0,0,0-1.53-1.77l-14.61-7a2.56,2.56,0,0,0-1.2-.24A5.31,5.31,0,0,0,252,382l-14.61,7a2.58,2.58,0,0,0-1.44,1.78l-3.59,15.75a3,3,0,0,0,.52,2.3L243,421.36a3.51,3.51,0,0,0,2.2,1h16.1a2.39,2.39,0,0,0,2.2-1l10.11-12.51a3.24,3.24,0,0,0,.57-2.3l-3.64-15.66Z"/><path id="path10351" class="cls-3" d="M268.24,405.93h0c-.05,0-.09,0-.09-.05s-.1,0-.2,0a2.2,2.2,0,0,0-.57,0,.59.59,0,0,1-.29-.05h0a9.19,9.19,0,0,1-1.62-.29.56.56,0,0,1-.34-.33h0l-.38-.1a12.7,12.7,0,0,0-.19-4.21,13,13,0,0,0-1.68-3.93l.29-.29h0v0a.65.65,0,0,1,.14-.43,8.87,8.87,0,0,1,1.34-1h0l.29-.14c.19-.09.33-.19.53-.29,0,0,.09,0,.14-.09s0-.05,0-.1h0a.93.93,0,0,0,.19-1.34.91.91,0,0,0-.67-.33,1.15,1.15,0,0,0-.67.23h0l-.05.05c-.05.05-.09.1-.14.1a3,3,0,0,0-.39.43c0,.1-.14.14-.19.19h0a6.36,6.36,0,0,1-1.19,1.06.88.88,0,0,1-.29.09c-.05,0-.15,0-.19-.05h-.05l-.38.24c-.39-.38-.82-.76-1.2-1.15a12.28,12.28,0,0,0-6.23-2.49l-.05-.38h0v.05a.7.7,0,0,1-.24-.39,9.26,9.26,0,0,1,.1-1.63v0c0-.1.05-.19.05-.29s.05-.38.09-.58V388h0a1,1,0,0,0-.81-1,1,1,0,0,0-.82.34.94.94,0,0,0-.28.67h0v.24a2.26,2.26,0,0,0,.09.57.59.59,0,0,1,0,.29v.05a8.6,8.6,0,0,1,.1,1.63.71.71,0,0,1-.24.38v.09h0l-.05.39c-.53,0-1,.14-1.63.24a11.39,11.39,0,0,0-5.89,3.35l-.29-.19h0s-.09.05-.19.05a.72.72,0,0,1-.29-.1,8.39,8.39,0,0,1-1.19-1.1h0c0-.1-.15-.14-.19-.19s-.24-.29-.39-.43-.09-.05-.14-.1l0-.05h0a1.16,1.16,0,0,0-.67-.24.72.72,0,0,0-.67.34,1,1,0,0,0,.19,1.34h0a0,0,0,0,1,0,.05s.09.09.14.09a4.35,4.35,0,0,0,.53.29l.29.14h0a7.24,7.24,0,0,1,1.34,1,.5.5,0,0,1,.14.43v0h0l.29.28c-.05.1-.1.15-.14.24a11.37,11.37,0,0,0-1.68,7.86l-.38.09h0a0,0,0,0,1,0,0c-.05.15-.19.24-.34.34a8.4,8.4,0,0,1-1.63.28h0a.56.56,0,0,0-.28.05c-.2,0-.39.05-.58.05s-.09.05-.19.05,0,0-.1,0h0a.93.93,0,0,0-.76,1.1h0a.88.88,0,0,0,1,.67.43.43,0,0,0,.24-.05h0s0,0,0-.05.15,0,.19,0a3.55,3.55,0,0,0,.53-.19.65.65,0,0,1,.29-.09h0a8,8,0,0,1,1.58-.44h0a.54.54,0,0,1,.38.15,0,0,0,0,1,0,.05h0l.43-.05a11.54,11.54,0,0,0,3.93,5.6,6.74,6.74,0,0,0,1.29.86l-.24.34h0a0,0,0,0,0,.05.05.62.62,0,0,1,0,.48,8.19,8.19,0,0,1-.77,1.39v0a.84.84,0,0,1-.19.24c-.1.1-.19.29-.34.48s-.05.1-.09.15,0,0-.05,0h0a1,1,0,0,0,.38,1.3.86.86,0,0,0,.34.09,1.08,1.08,0,0,0,.91-.57h0s0-.05,0-.05,0-.1.1-.14c.05-.19.14-.34.19-.53l.1-.29h0a8,8,0,0,1,.62-1.48.75.75,0,0,1,.38-.29c.05,0,.05,0,.05,0h0l.19-.38a11.21,11.21,0,0,0,4.17.77,9.6,9.6,0,0,0,2.59-.34c.52-.1,1-.29,1.53-.43l.19.33h0c.05,0,.05,0,.05.05a.77.77,0,0,1,.38.29,8.78,8.78,0,0,1,.63,1.48v.05l.09.29a2.07,2.07,0,0,0,.19.53s0,.09.1.14a0,0,0,0,0,.05.05h0a1.07,1.07,0,0,0,.91.57,1.05,1.05,0,0,0,.38-.09.83.83,0,0,0,.43-.53,1.19,1.19,0,0,0-.05-.72h0c0-.05,0-.05,0-.05s-.05-.09-.1-.14a1.82,1.82,0,0,0-.34-.48.76.76,0,0,0-.19-.24v-.09a5.72,5.72,0,0,1-.76-1.39.58.58,0,0,1,0-.48,0,0,0,0,1,.05-.05h0l-.14-.38a11.87,11.87,0,0,0,5.17-6.52l.38.05h0a0,0,0,0,0,.05-.05.58.58,0,0,1,.39-.14h0a7.78,7.78,0,0,1,1.54.43h0a.72.72,0,0,0,.29.1,3.1,3.1,0,0,0,.53.24c.05,0,.09,0,.19,0s.05,0,.1.05h0a.4.4,0,0,0,.24.05,1,1,0,0,0,1-.67,1.13,1.13,0,0,0-.86-1Zm-13.84-1.48-1.29.62-1.3-.62-.33-1.39.91-1.15h1.43l.91,1.15Zm7.81-3.12a9.35,9.35,0,0,1,.19,3l-4.55-1.29h0a.8.8,0,0,1-.58-1,.94.94,0,0,1,.19-.34l3.6-3.25A10,10,0,0,1,262.21,401.33Zm-2.59-4.59-3.93,2.77a.8.8,0,0,1-1.05-.19.41.41,0,0,1-.15-.33l-.28-4.84a9,9,0,0,1,5.41,2.59ZM251,394.29l1-.19-.24,4.79h0a.81.81,0,0,1-.82.77,1.07,1.07,0,0,1-.38-.1l-4-2.82A9.58,9.58,0,0,1,251,394.29Zm-5.84,4.22,3.54,3.16h0a.77.77,0,0,1,.1,1.1.59.59,0,0,1-.39.24l-4.64,1.34A10,10,0,0,1,245.11,398.51Zm-.82,8.09,4.74-.81a.79.79,0,0,1,.82.62.55.55,0,0,1,0,.48h0L248,411.3A9.39,9.39,0,0,1,244.29,406.6Zm10.87,5.94a9.27,9.27,0,0,1-2,.24,10.65,10.65,0,0,1-3-.48l2.34-4.26a.75.75,0,0,1,1-.19,2.28,2.28,0,0,1,.39.33h0l2.29,4.17C255.79,412.4,255.5,412.45,255.16,412.54Zm5.85-4.16a9.28,9.28,0,0,1-2.88,2.87l-1.86-4.5a.76.76,0,0,1,.43-.91,1.28,1.28,0,0,1,.43-.1l4.79.81A7.28,7.28,0,0,1,261,408.38Z"/><path id="path10349-2" data-name="path10349" class="cls-11" d="M454.36,390.89a3.13,3.13,0,0,0-1.53-1.77l-14.61-7a2.61,2.61,0,0,0-1.2-.24,5.4,5.4,0,0,0-1.2.09l-14.61,7a2.61,2.61,0,0,0-1.44,1.78l-3.59,15.75a3,3,0,0,0,.53,2.3l10.11,12.51a3.48,3.48,0,0,0,2.2,1h16.09a2.4,2.4,0,0,0,2.21-1l10.1-12.51a3.29,3.29,0,0,0,.58-2.3l-3.64-15.66Z"/><path id="path10351-2" data-name="path10351" class="cls-3" d="M452.11,405.93h0c-.05,0-.1,0-.1-.05s-.09,0-.19,0a2.2,2.2,0,0,0-.57,0,.58.58,0,0,1-.29-.05h0a9.3,9.3,0,0,1-1.63-.29.54.54,0,0,1-.33-.33h0l-.39-.1a12.44,12.44,0,0,0-.19-4.21,12.79,12.79,0,0,0-1.68-3.93l.29-.29h0v0a.66.66,0,0,1,.15-.43,8.87,8.87,0,0,1,1.34-1h0l.28-.14c.2-.09.34-.19.53-.29s.1,0,.14-.09,0-.05,0-.1h0a.93.93,0,0,0,.2-1.34.92.92,0,0,0-.67-.33,1.15,1.15,0,0,0-.67.23h0l0,.05c-.05.05-.1.1-.15.1a3.66,3.66,0,0,0-.38.43c-.05.1-.14.14-.19.19h0a6.75,6.75,0,0,1-1.2,1.06.75.75,0,0,1-.29.09.29.29,0,0,1-.19-.05h-.05l-.38.24c-.38-.38-.81-.76-1.2-1.15a12.24,12.24,0,0,0-6.22-2.49l-.05-.38h0v.05a.65.65,0,0,1-.24-.39,10.27,10.27,0,0,1,.09-1.63v0c0-.1.05-.19.05-.29s.05-.38.1-.58V388h0a1,1,0,0,0-1.92,0h0v.24a2.28,2.28,0,0,0,.1.57.59.59,0,0,1,.05.29v.05a9.55,9.55,0,0,1,.09,1.63.65.65,0,0,1-.24.38v.09h0l-.05.39c-.52,0-1,.14-1.62.24a11.42,11.42,0,0,0-5.9,3.35l-.28-.19h-.05c-.05,0-.1.05-.19.05a.67.67,0,0,1-.29-.1,9.06,9.06,0,0,1-1.2-1.1h0c-.05-.1-.14-.14-.19-.19s-.24-.29-.38-.43-.1-.05-.15-.1l0-.05h0a1.22,1.22,0,0,0-.67-.24.75.75,0,0,0-.68.34,1,1,0,0,0,.2,1.34h0s0,.05,0,.05.1.09.15.09a3.57,3.57,0,0,0,.52.29l.29.14h0a6.92,6.92,0,0,1,1.34,1,.48.48,0,0,1,.15.43v0h0l.28.28a1.88,1.88,0,0,1-.14.24,11.42,11.42,0,0,0-1.68,7.86l-.38.09h0a0,0,0,0,1,0,0c0,.15-.19.24-.33.34a8.68,8.68,0,0,1-1.63.28h0a.59.59,0,0,0-.29.05c-.19,0-.38.05-.57.05s-.1.05-.19.05,0,0-.1,0h0a.93.93,0,0,0-.77,1.1h0a.89.89,0,0,0,1,.67.4.4,0,0,0,.24-.05h0c.05,0,.05,0,.05-.05s.14,0,.19,0a4.61,4.61,0,0,0,.53-.19.61.61,0,0,1,.28-.09h0a8.39,8.39,0,0,1,1.58-.44h0a.52.52,0,0,1,.38.15,0,0,0,0,1,0,.05h0l.43-.05a11.54,11.54,0,0,0,3.93,5.6,7.07,7.07,0,0,0,1.29.86l-.23.34h0c0,.05,0,.05,0,.05a.54.54,0,0,1,0,.48,7.56,7.56,0,0,1-.77,1.39v0a.59.59,0,0,1-.19.24c-.09.1-.19.29-.33.48s-.05.1-.1.15,0,0-.05,0h0a1,1,0,0,0,.39,1.3.82.82,0,0,0,.33.09,1.07,1.07,0,0,0,.91-.57h0a0,0,0,0,1,0-.05c0-.05.05-.1.1-.14,0-.19.14-.34.19-.53l.09-.29h0a8.78,8.78,0,0,1,.63-1.48.71.71,0,0,1,.38-.29s0,0,0,0h0l.19-.38a11.21,11.21,0,0,0,4.17.77,9.53,9.53,0,0,0,2.58-.34c.53-.1,1.06-.29,1.54-.43l.19.33h0c.05,0,.05,0,.05.05a.81.81,0,0,1,.38.29,8,8,0,0,1,.62,1.48v.05l.1.29a1.75,1.75,0,0,0,.19.53s0,.09.09.14a0,0,0,0,0,.05.05h0a1.08,1.08,0,0,0,.91.57,1.1,1.1,0,0,0,.39-.09.83.83,0,0,0,.43-.53,1.36,1.36,0,0,0,0-.72h0a0,0,0,0,0-.05-.05s-.05-.09-.09-.14a2.08,2.08,0,0,0-.34-.48,1.24,1.24,0,0,0-.19-.24v-.09a5.44,5.44,0,0,1-.77-1.39.54.54,0,0,1,0-.48,0,0,0,0,1,.05-.05h0l-.15-.38a11.84,11.84,0,0,0,5.18-6.52l.38.05h0a0,0,0,0,0,.05-.05.56.56,0,0,1,.38-.14h0a7.69,7.69,0,0,1,1.53.43h.05a.67.67,0,0,0,.29.1,3,3,0,0,0,.52.24,1.37,1.37,0,0,0,.2,0s0,0,.09.05h0a.43.43,0,0,0,.24.05,1,1,0,0,0,1-.67,1.14,1.14,0,0,0-.86-1Zm-13.85-1.48-1.29.62-1.29-.62-.34-1.39.91-1.15h1.44l.91,1.15Zm7.81-3.12a9.07,9.07,0,0,1,.19,3l-4.55-1.29h0a.78.78,0,0,1-.57-1,.81.81,0,0,1,.19-.34l3.59-3.25A9.68,9.68,0,0,1,446.07,401.33Zm-2.58-4.59-3.93,2.77a.81.81,0,0,1-1.06-.19.44.44,0,0,1-.14-.33l-.29-4.84a9,9,0,0,1,5.42,2.59Zm-8.67-2.45.95-.19-.24,4.79h0a.8.8,0,0,1-.81.77,1.07,1.07,0,0,1-.38-.1l-4-2.82A9.58,9.58,0,0,1,434.82,394.29ZM429,398.51l3.55,3.16h0a.77.77,0,0,1,.09,1.1.54.54,0,0,1-.38.24l-4.65,1.34A10.13,10.13,0,0,1,429,398.51Zm-.81,8.09,4.74-.81a.78.78,0,0,1,.81.62.58.58,0,0,1,0,.48h0l-1.82,4.41A9.39,9.39,0,0,1,428.16,406.6ZM439,412.54a9.29,9.29,0,0,1-2.06.24,10.65,10.65,0,0,1-3-.48L436.3,408a.74.74,0,0,1,1-.19,2.24,2.24,0,0,1,.38.33h0l2.3,4.17C439.65,412.4,439.37,412.45,439,412.54Zm5.84-4.16a9.14,9.14,0,0,1-2.87,2.87l-1.87-4.5a.78.78,0,0,1,.43-.91,1.41,1.41,0,0,1,.43-.1l4.79.81A7,7,0,0,1,444.87,408.38Z"/><path id="path10349-3" data-name="path10349" class="cls-11" d="M641.46,390.89a3.13,3.13,0,0,0-1.53-1.77l-14.61-7a2.61,2.61,0,0,0-1.2-.24,5.4,5.4,0,0,0-1.2.09l-14.61,7a2.61,2.61,0,0,0-1.44,1.78l-3.59,15.75a3,3,0,0,0,.53,2.3l10.11,12.51a3.48,3.48,0,0,0,2.2,1h16.09a2.4,2.4,0,0,0,2.21-1l10.1-12.51a3.29,3.29,0,0,0,.58-2.3l-3.64-15.66Z"/><path id="path10351-3" data-name="path10351" class="cls-3" d="M639.21,405.93h0c-.05,0-.1,0-.1-.05s-.09,0-.19,0a2.24,2.24,0,0,0-.58,0,.56.56,0,0,1-.28-.05h0a9.3,9.3,0,0,1-1.63-.29.54.54,0,0,1-.33-.33h0l-.39-.1a12.44,12.44,0,0,0-.19-4.21,12.79,12.79,0,0,0-1.68-3.93l.29-.29h0v0a.66.66,0,0,1,.15-.43,8.87,8.87,0,0,1,1.34-1h0l.28-.14c.2-.09.34-.19.53-.29s.1,0,.14-.09,0-.05,0-.1h0a.93.93,0,0,0,.2-1.34.92.92,0,0,0-.67-.33,1.15,1.15,0,0,0-.67.23h0l0,.05c-.05.05-.1.1-.15.1a3.66,3.66,0,0,0-.38.43c0,.1-.14.14-.19.19h0a6.75,6.75,0,0,1-1.2,1.06.75.75,0,0,1-.29.09.29.29,0,0,1-.19-.05h0l-.38.24c-.38-.38-.81-.76-1.2-1.15a12.24,12.24,0,0,0-6.22-2.49l-.05-.38h0v.05a.65.65,0,0,1-.24-.39,10.27,10.27,0,0,1,.09-1.63v0c0-.1,0-.19,0-.29s.05-.38.1-.58V388h0a1,1,0,0,0-1.92,0h0v.24a2.28,2.28,0,0,0,.1.57.59.59,0,0,1,0,.29v.05a9.55,9.55,0,0,1,.09,1.63.65.65,0,0,1-.24.38v.09h0l-.05.39c-.52,0-1,.14-1.62.24a11.38,11.38,0,0,0-5.9,3.35l-.28-.19h0c-.05,0-.1.05-.19.05a.67.67,0,0,1-.29-.1,9.06,9.06,0,0,1-1.2-1.1h0c0-.1-.14-.14-.19-.19s-.24-.29-.38-.43-.1-.05-.15-.1l0-.05h0a1.22,1.22,0,0,0-.67-.24.75.75,0,0,0-.68.34,1,1,0,0,0,.2,1.34h0s0,.05,0,.05.1.09.15.09a3.57,3.57,0,0,0,.52.29l.29.14h0a6.92,6.92,0,0,1,1.34,1,.48.48,0,0,1,.15.43v0h0l.28.28a1.88,1.88,0,0,1-.14.24,11.42,11.42,0,0,0-1.68,7.86l-.38.09h0a0,0,0,0,1-.05,0c0,.15-.19.24-.33.34a8.68,8.68,0,0,1-1.63.28h0a.59.59,0,0,0-.29.05c-.19,0-.38.05-.57.05s-.1.05-.19.05,0,0-.1,0h0a.93.93,0,0,0-.77,1.1h0a.89.89,0,0,0,1,.67.42.42,0,0,0,.24-.05h0s0,0,0-.05.14,0,.19,0a4.61,4.61,0,0,0,.53-.19.61.61,0,0,1,.28-.09h0a8.39,8.39,0,0,1,1.58-.44h.05a.52.52,0,0,1,.38.15,0,0,0,0,1,0,.05h0l.43-.05a11.54,11.54,0,0,0,3.93,5.6,7.07,7.07,0,0,0,1.29.86l-.24.34h0a0,0,0,0,0,.05.05.54.54,0,0,1,0,.48,7.56,7.56,0,0,1-.77,1.39v0a.59.59,0,0,1-.19.24c-.09.1-.19.29-.33.48s-.05.1-.1.15,0,0,0,0h0a1,1,0,0,0,.39,1.3.82.82,0,0,0,.33.09,1.07,1.07,0,0,0,.91-.57h0a0,0,0,0,1,0-.05c0-.05,0-.1.1-.14,0-.19.14-.34.19-.53l.09-.29h0a8.78,8.78,0,0,1,.63-1.48.71.71,0,0,1,.38-.29s0,0,0,0h0l.19-.38a11.21,11.21,0,0,0,4.17.77,9.53,9.53,0,0,0,2.58-.34c.53-.1,1.06-.29,1.54-.43l.19.33h0s0,0,0,.05a.81.81,0,0,1,.38.29,8,8,0,0,1,.62,1.48v.05l.1.29a1.52,1.52,0,0,0,.19.53s0,.09.09.14a0,0,0,0,0,.05.05h0a1.08,1.08,0,0,0,.91.57,1.1,1.1,0,0,0,.39-.09.83.83,0,0,0,.43-.53,1.36,1.36,0,0,0-.05-.72h0a0,0,0,0,0,0-.05s-.05-.09-.09-.14a2.08,2.08,0,0,0-.34-.48,1.24,1.24,0,0,0-.19-.24v-.09a5.44,5.44,0,0,1-.77-1.39.54.54,0,0,1,0-.48,0,0,0,0,1,0-.05h0l-.15-.38a11.89,11.89,0,0,0,5.18-6.52l.38.05h0a0,0,0,0,0,0-.05.56.56,0,0,1,.38-.14h.05a7.69,7.69,0,0,1,1.53.43h0a.67.67,0,0,0,.29.1,3,3,0,0,0,.52.24,1.37,1.37,0,0,0,.2,0s0,0,.09.05h0a.43.43,0,0,0,.24.05,1,1,0,0,0,1-.67,1.14,1.14,0,0,0-.86-1Zm-13.85-1.48-1.29.62-1.29-.62-.34-1.39.91-1.15h1.44l.91,1.15Zm7.81-3.12a9.07,9.07,0,0,1,.19,3l-4.55-1.29h0a.78.78,0,0,1-.57-1,.81.81,0,0,1,.19-.34l3.59-3.25A9.68,9.68,0,0,1,633.17,401.33Zm-2.59-4.59-3.92,2.77a.81.81,0,0,1-1.06-.19.44.44,0,0,1-.14-.33l-.29-4.84a9,9,0,0,1,5.41,2.59Zm-8.67-2.45,1-.19-.24,4.79h0a.8.8,0,0,1-.81.77,1.07,1.07,0,0,1-.38-.1l-4-2.82A9.6,9.6,0,0,1,621.91,394.29Zm-5.84,4.22,3.55,3.16h0a.77.77,0,0,1,.09,1.1.54.54,0,0,1-.38.24l-4.65,1.34A10.13,10.13,0,0,1,616.07,398.51Zm-.81,8.09,4.74-.81a.78.78,0,0,1,.81.62.58.58,0,0,1,0,.48h0L619,411.3A9.39,9.39,0,0,1,615.26,406.6Zm10.87,5.94a9.29,9.29,0,0,1-2.06.24,10.65,10.65,0,0,1-3-.48L623.4,408a.74.74,0,0,1,1-.19,2.24,2.24,0,0,1,.38.33h0l2.3,4.17C626.75,412.4,626.47,412.45,626.13,412.54Zm5.84-4.16a9.14,9.14,0,0,1-2.87,2.87l-1.87-4.5a.78.78,0,0,1,.43-.91,1.41,1.41,0,0,1,.43-.1l4.79.81A7,7,0,0,1,632,408.38Z"/><path id="path10349-4" data-name="path10349" class="cls-11" d="M553.81,169.79a3.12,3.12,0,0,0-1.53-1.78l-14.61-7a2.69,2.69,0,0,0-1.2-.24,4.79,4.79,0,0,0-1.19.1l-14.61,7a2.56,2.56,0,0,0-1.44,1.77l-3.59,15.76a3,3,0,0,0,.52,2.3l10.11,12.5a3.49,3.49,0,0,0,2.2,1h16.1a2.39,2.39,0,0,0,2.2-1l10.11-12.5a3.25,3.25,0,0,0,.57-2.3l-3.64-15.66Z"/><path id="path10351-4" data-name="path10351" class="cls-3" d="M551.56,184.83h0s-.09,0-.09-.05-.1-.05-.2-.05a2.2,2.2,0,0,0-.57,0,.73.73,0,0,1-.29,0h0a10.21,10.21,0,0,1-1.62-.29.57.57,0,0,1-.34-.34h0l-.38-.09a12.76,12.76,0,0,0-.19-4.22,13,13,0,0,0-1.68-3.93l.29-.28h0v-.05a.64.64,0,0,1,.14-.43,8.87,8.87,0,0,1,1.34-1h0l.29-.14c.19-.1.33-.2.53-.29,0-.05.09-.05.14-.1s0,0,0-.09h0a.93.93,0,0,0,.19-1.34.88.88,0,0,0-.67-.34,1.16,1.16,0,0,0-.67.24h0l-.05,0c0,.05-.09.09-.14.09a2.48,2.48,0,0,0-.38.44c0,.09-.15.14-.2.19h0a6.31,6.31,0,0,1-1.19,1.05.72.72,0,0,1-.29.1.27.27,0,0,1-.19,0h0l-.38.24c-.39-.39-.82-.77-1.2-1.15a12.28,12.28,0,0,0-6.23-2.49l0-.39h0v.05a.67.67,0,0,1-.24-.38,9.2,9.2,0,0,1,.1-1.63v-.05c0-.09,0-.19,0-.28s.05-.39.09-.58v-.29h0a.93.93,0,0,0-.81-1,1,1,0,0,0-.82.33.94.94,0,0,0-.28.67h0v.24a2.91,2.91,0,0,0,.09.58.56.56,0,0,1,.05.28v.05a8.71,8.71,0,0,1,.1,1.63.67.67,0,0,1-.24.38v.1h0l-.05.38c-.53,0-1,.15-1.63.24a11.41,11.41,0,0,0-5.89,3.36l-.29-.2h-.05s-.09.05-.19.05a.88.88,0,0,1-.29-.09,8.44,8.44,0,0,1-1.19-1.11h0c0-.09-.15-.14-.19-.19s-.24-.28-.39-.43-.09-.05-.14-.09l0-.05h0a1.1,1.1,0,0,0-.67-.24.71.71,0,0,0-.67.33,1,1,0,0,0,.19,1.35h0s0,0,0,0,.1.1.14.1l.53.29.29.14h0a6.92,6.92,0,0,1,1.34,1,.49.49,0,0,1,.14.43v-.05h0l.29.29a1.88,1.88,0,0,0-.14.24,11.34,11.34,0,0,0-1.68,7.85l-.38.1h0a0,0,0,0,1,0,0,.73.73,0,0,1-.34.33,8.4,8.4,0,0,1-1.63.29h0a.56.56,0,0,0-.28.05c-.19,0-.39,0-.58,0s-.09,0-.19,0-.05,0-.1,0h0a.94.94,0,0,0-.76,1.1h0a.89.89,0,0,0,1,.67.53.53,0,0,0,.24,0h0s0,0,0-.05.15,0,.2,0,.38-.15.52-.19a.67.67,0,0,1,.29-.1h0a8.73,8.73,0,0,1,1.58-.43h0a.57.57,0,0,1,.38.14,0,0,0,0,1,.05,0h0l.43,0a11.56,11.56,0,0,0,3.93,5.61,7.83,7.83,0,0,0,1.29.86l-.24.34h0s.05,0,.05,0a.63.63,0,0,1,0,.48,8.19,8.19,0,0,1-.77,1.39v0a1,1,0,0,1-.19.24c-.1.09-.19.29-.34.48s-.05.09-.09.14a0,0,0,0,1-.05,0h0a1,1,0,0,0,.38,1.29.88.88,0,0,0,.34.1,1.07,1.07,0,0,0,.91-.58h0s0,0,.05,0a.24.24,0,0,1,.09-.15c0-.19.14-.33.19-.52l.1-.29h0a7.8,7.8,0,0,1,.62-1.49.73.73,0,0,1,.38-.28s0,0,0-.05h0l.19-.39a11.25,11.25,0,0,0,4.17.77,9.59,9.59,0,0,0,2.59-.33,14.3,14.3,0,0,0,1.53-.44l.19.34h0s0,0,0,.05a.71.71,0,0,1,.38.29,8.13,8.13,0,0,1,.63,1.48v0l.09.29a1.87,1.87,0,0,0,.19.52c.05.05.05.1.1.15s0,0,.05,0h0a1.06,1.06,0,0,0,.91.58,1.07,1.07,0,0,0,.38-.1.78.78,0,0,0,.43-.52,1.19,1.19,0,0,0,0-.72h0c0-.05,0-.05,0-.05s-.05-.1-.1-.14a1.54,1.54,0,0,0-.34-.48.59.59,0,0,0-.19-.24v-.1a5.72,5.72,0,0,1-.76-1.39.58.58,0,0,1,0-.48s0,0,0,0h0l-.14-.39a11.81,11.81,0,0,0,5.17-6.51l.39,0h0s0,0,0,0a.54.54,0,0,1,.39-.15h0a7.8,7.8,0,0,1,1.54.44h0a.76.76,0,0,0,.28.09,2.48,2.48,0,0,0,.53.24s.1,0,.19,0,0,0,.1.05h0a.49.49,0,0,0,.24,0,1,1,0,0,0,.95-.67,1.11,1.11,0,0,0-.86-1Zm-13.84-1.49-1.29.63-1.3-.63L534.8,182l.91-1.15h1.43l.91,1.15Zm7.81-3.11a9.33,9.33,0,0,1,.19,3l-4.55-1.3h0a.78.78,0,0,1-.58-.95.86.86,0,0,1,.19-.34l3.6-3.26A10,10,0,0,1,545.53,180.23Zm-2.59-4.6L539,178.41a.82.82,0,0,1-1-.19.43.43,0,0,1-.15-.34l-.28-4.84a9,9,0,0,1,5.41,2.59Zm-8.67-2.44,1-.19-.24,4.79h0a.79.79,0,0,1-.82.76,1.31,1.31,0,0,1-.38-.09l-4-2.83A9.4,9.4,0,0,1,534.27,173.19Zm-5.84,4.21,3.54,3.16h0a.78.78,0,0,1,.1,1.11.59.59,0,0,1-.39.24L527,183.25A10,10,0,0,1,528.43,177.4Zm-.82,8.1,4.74-.82a.79.79,0,0,1,.82.63.55.55,0,0,1,0,.48h0l-1.82,4.4A9.41,9.41,0,0,1,527.61,185.5Zm10.88,5.94a10.09,10.09,0,0,1-2.06.24,10.65,10.65,0,0,1-3-.48l2.34-4.26a.75.75,0,0,1,1-.2,3,3,0,0,1,.39.34h0l2.3,4.17A5.7,5.7,0,0,0,538.49,191.44Zm5.84-4.17a9.14,9.14,0,0,1-2.87,2.87l-1.87-4.5a.77.77,0,0,1,.43-.91,1.32,1.32,0,0,1,.43-.09l4.79.81A7.38,7.38,0,0,1,544.33,187.27Z"/><line class="cls-12" x1="197" y1="430.65" x2="236.42" y2="369.55"/><line class="cls-12" x1="380.6" y1="430.65" x2="420.01" y2="369.55"/><line class="cls-12" x1="566.42" y1="430.65" x2="605.84" y2="369.55"/><path class="cls-13" d="M152.82,403.44a28,28,0,0,1,0-3,3.09,3.09,0,0,1,2.21-1.33c1.36,0,3-.11,4-1.08s3.25-.77,3.25-.77l30.74.2a4.29,4.29,0,0,1,2.6,0c1,.48,2.24,1.65,3.08,1.62s4.42-.64,3.77,2.83L161,407.59Z"/><path class="cls-14" d="M202.46,401.88s-2-.33-5.35-1-4.43,2-7.16,2.9-4.16-.52-7.28-.81-2.4,1.23-6.27,1.46-4.71-2.9-7.33-3-4.37,1.67-6.8,2.29-3.9-1.33-5.92-1.66a4.87,4.87,0,0,0-3.54.92s0,8.68,5.67,14.71c6,6.44,23.74,8.52,35.41,1.64C200.84,415.23,202.46,401.88,202.46,401.88Z"/><path class="cls-15" d="M162.84,406.37s-4.45,1.3-4.9,2.41,1.41,5.2,4.57,6.74,11.13,1.82,15.53-2.43,3.4-7.54,5.24-7.63,2.63,1.72,5.38.46a4.28,4.28,0,0,0-4.6-2.43,3.7,3.7,0,0,0,1.28-4.85,4.71,4.71,0,0,0-1.27.68Z"/><g class="cls-16"><path class="cls-17" d="M158.79,408a14.59,14.59,0,0,1,3.42-.25,33.85,33.85,0,0,0,4.75.53l-3.91-2.56Z"/><path class="cls-18" d="M167,413.31a3.72,3.72,0,0,0,3.46,3.05s-6.07.8-9-1.48-3.07-3.83-3.07-3.83a5.73,5.73,0,0,0,4.07,2.46A11.06,11.06,0,0,0,167,413.31Z"/><path class="cls-17" d="M164.92,408.18s4.29,2.17,4.9,3.46,4.37-2.35,4.37-2.35l-7.28-1.85Z"/></g><path class="cls-19" d="M162.84,406.37s-4.45,1.3-4.9,2.41,1.41,5.2,4.57,6.74,11.13,1.82,15.53-2.43,3.4-7.54,5.24-7.63,2.63,1.72,5.38.46a4.28,4.28,0,0,0-4.6-2.43,3.7,3.7,0,0,0,1.28-4.85,4.71,4.71,0,0,0-1.27.68Z"/><path class="cls-15" d="M160.4,398.84s-3.21.85-3.41,2.11.69,5.79,6.76,7,11.67,0,14.5-3.93a13.33,13.33,0,0,0,2.76-7.8,1.69,1.69,0,0,1,1.62-1.95c1.63-.29,3.15.2,4.29-1.56,0,0-3-2-5.26-.22a3.34,3.34,0,0,0-.72-4.94s-1.23.71-1.3,3.15.84,2.93-1.11,4.06Z"/><g class="cls-20"><path class="cls-21" d="M168,404.65a2.56,2.56,0,0,0,1.58,2.36c1.67.76,4.62.24,4.62.24l-4.68,2.49L158.49,407l-1.29-4.24a9.77,9.77,0,0,0,5.42,2.56A10.64,10.64,0,0,0,168,404.65Z"/><path class="cls-22" d="M163.55,403.29a9.2,9.2,0,0,1-1.28.44c-2.44.62-3.9-1.33-5.92-1.66a4.87,4.87,0,0,0-3.54.92l6.89-6.14,4.82,3.07,1.29,1.77Z"/></g><path class="cls-19" d="M160.4,398.84s-3.21.85-3.41,2.11.69,5.79,6.76,7,11.67,0,14.5-3.93a13.33,13.33,0,0,0,2.76-7.8,1.69,1.69,0,0,1,1.62-1.95c1.63-.29,3.15.2,4.29-1.56,0,0-3-2-5.26-.22a3.34,3.34,0,0,0-.72-4.94s-1.23.71-1.3,3.15.84,2.93-1.11,4.06Z"/><path class="cls-15" d="M166.94,400.2s-3.22.84-3.42,2.11.69,5.79,6.76,7,11.67,0,14.5-3.93a13.27,13.27,0,0,0,2.76-7.8,1.69,1.69,0,0,1,1.62-2c1.63-.29,3.16.19,4.29-1.56,0,0-3-2-5.26-.23a3.34,3.34,0,0,0-.72-4.94s-1.23.72-1.3,3.16.84,2.93-1.1,4.06Z"/><g class="cls-23"><path class="cls-21" d="M174.57,406a2.58,2.58,0,0,0,1.58,2.36c1.67.75,4.62.24,4.62.24l-4.68,2.49L165,408.32l-1.29-4.23a9.77,9.77,0,0,0,5.42,2.56A10.77,10.77,0,0,0,174.57,406Z"/><path class="cls-22" d="M163.55,403.29c1.82-.77,3.37-1.93,5.52-1.85,1.54.07,2.46,1.17,3.75,2l6.52-2.06s-16.44-1.76-16.61-1.57A19.94,19.94,0,0,0,163.55,403.29Z"/></g><path class="cls-19" d="M166.94,400.2s-3.22.84-3.42,2.11.69,5.79,6.76,7,11.67,0,14.5-3.93a13.27,13.27,0,0,0,2.76-7.8,1.69,1.69,0,0,1,1.62-2c1.63-.29,3.16.19,4.29-1.56,0,0-3-2-5.26-.23a3.34,3.34,0,0,0-.72-4.94s-1.23.72-1.3,3.16.84,2.93-1.1,4.06Z"/><path class="cls-15" d="M174.61,409.42s-4.45,1.3-4.9,2.41,1.41,5.2,4.57,6.74,11.13,1.82,15.53-2.43,3.4-7.53,5.25-7.62,2.62,1.71,5.37.45a4.26,4.26,0,0,0-4.59-2.42,3.72,3.72,0,0,0,1.27-4.86,4.55,4.55,0,0,0-1.27.69Z"/><g class="cls-24"><path class="cls-18" d="M180.8,415.71s-.3,3.21,3.68,3.31c0,0-11.16,3.15-14.41-5.08a9,9,0,0,0,5.38,2.46A9.62,9.62,0,0,0,180.8,415.71Z"/><path class="cls-17" d="M170.56,411.05a14.34,14.34,0,0,1,3.42-.26,33.85,33.85,0,0,0,4.75.53l-3.91-2.55Z"/></g><path class="cls-19" d="M174.61,409.42s-4.45,1.3-4.9,2.41,1.41,5.2,4.57,6.74,11.13,1.82,15.53-2.43,3.4-7.53,5.25-7.62,2.62,1.71,5.37.45a4.26,4.26,0,0,0-4.59-2.42,3.72,3.72,0,0,0,1.27-4.86,4.55,4.55,0,0,0-1.27.69Z"/><path class="cls-15" d="M175.59,402.24s-3.22.84-3.41,2.11.68,5.78,6.76,7,11.66,0,14.49-3.93a13.19,13.19,0,0,0,2.76-7.8,1.69,1.69,0,0,1,1.63-1.95c1.62-.3,3.15.19,4.29-1.56,0,0-3.06-2-5.27-.23a3.34,3.34,0,0,0-.71-4.94s-1.24.71-1.3,3.15.84,2.93-1.11,4.07Z"/><g class="cls-25"><path class="cls-18" d="M183.23,408a2.56,2.56,0,0,0,1.58,2.36c1.67.76,4.62.25,4.62.25l-4.69,2.48-11.07-2.77-1.29-4.24a9.75,9.75,0,0,0,5.43,2.56A10.67,10.67,0,0,0,183.23,408Z"/><path class="cls-22" d="M196,400.8a5.4,5.4,0,0,1,1.16.1c3.37.65,5.35,1,5.35,1l1.11-12.44s-14.95-1.83-15.53-1.57-15.22,15.59-15.22,15.59a5.53,5.53,0,0,0,3.58,1c3.87-.23,3.15-1.74,6.27-1.46s4.55,1.72,7.28.81c2.39-.8,3.5-2.92,6-3"/></g><path class="cls-19" d="M175.59,402.24s-3.22.84-3.41,2.11.68,5.78,6.76,7,11.66,0,14.49-3.93a13.19,13.19,0,0,0,2.76-7.8,1.69,1.69,0,0,1,1.63-1.95c1.62-.3,3.15.19,4.29-1.56,0,0-3.06-2-5.27-.23a3.34,3.34,0,0,0-.71-4.94s-1.24.71-1.3,3.15.84,2.93-1.11,4.07Z"/><ellipse class="cls-3" cx="185.07" cy="407.49" rx="1.28" ry="1.14"/><g class="cls-26"><circle cx="184.72" cy="406.96" r="0.78"/></g><ellipse class="cls-19" cx="185.07" cy="407.49" rx="1.28" ry="1.14"/><path class="cls-19" d="M172.38,406.12a9,9,0,0,0,5,2.51,11.53,11.53,0,0,0,5.83-.59"/><path class="cls-19" d="M170.07,413.94a8.84,8.84,0,0,0,5.38,2.46,9.48,9.48,0,0,0,5.35-.69"/><ellipse class="cls-3" cx="182.6" cy="415.23" rx="1.19" ry="1.13"/><g class="cls-27"><circle cx="182.36" cy="414.58" r="0.84"/></g><ellipse class="cls-19" cx="182.6" cy="415.23" rx="1.19" ry="1.13"/><path class="cls-19" d="M158.48,411.26a7.62,7.62,0,0,0,4.3,2.31,9.46,9.46,0,0,0,4.2-.26"/><ellipse class="cls-3" cx="168.88" cy="412.88" rx="1.2" ry="1.05"/><g class="cls-28"><ellipse cx="168.56" cy="412.14" rx="0.88" ry="1"/></g><ellipse class="cls-19" cx="168.88" cy="412.88" rx="1.2" ry="1.05"/><path class="cls-29" d="M159.63,394.86s1.08-.2,4.23-.49c0,0,13.6.57,16.94,1.15L178,397.43Z"/><path class="cls-30" d="M177,402.5s14.78-2.05,16.64-2.28l.26-5.65A158,158,0,0,0,177,396"/><path class="cls-30" d="M180.8,395.52s.15-4.07.25-5.44a94.75,94.75,0,0,1,9.88-.29l-.26,4.89S181.77,395.4,180.8,395.52Z"/><path class="cls-30" d="M187.29,389.76a44.74,44.74,0,0,1,.39-5l3.67.39s-.36,3.4-.42,4.61C190.93,389.79,187.71,389.74,187.29,389.76Z"/><path class="cls-31" d="M170.75,389.44v-4.95l16.93.3a35.91,35.91,0,0,0-.39,5Z"/><path class="cls-31" d="M159.83,400.58c0,.1,13.06,1,17.16,1.92V396l-17.36-1.14Z"/><path class="cls-31" d="M163.86,394.37v-4.74l17.19.45-.25,5.44S169.12,394.47,163.86,394.37Z"/><path class="cls-29" d="M163.86,389.63s15.17-.51,23.43.13l-6.24.32Z"/><path class="cls-19" d="M180.8,395.52s-.15,4.76-.15,6.47"/><path class="cls-19" d="M184.14,389.93s-.21,8.89-.21,11.61"/><path class="cls-19" d="M187.29,389.76s-.39,7-.4,11.37"/><path class="cls-19" d="M190.67,394.68s-.33,4.52-.42,6.12"/><g class="cls-32"><path class="cls-33" d="M176.66,386.87a1.62,1.62,0,0,0,1.05,1.75,2.64,2.64,0,0,0,3.27-1.27s.71.08.88-.48a.73.73,0,0,0-.81,0s0-.64-.34-.82a1.32,1.32,0,0,0-.12.64c0,.32.06.44-.21.44h-.5v-.61h-.57v-1h-.64v.38h-1.1v.51h-.47v.44Z"/><path class="cls-33" d="M169.23,392.06a1.62,1.62,0,0,0,1.05,1.75,2.63,2.63,0,0,0,3.27-1.26s.7.07.88-.49a.77.77,0,0,0-.82,0s0-.64-.33-.81a1.28,1.28,0,0,0-.12.64c0,.31.05.44-.22.43h-.5v-.61h-.57v-1h-.64v.37h-1.09v.51h-.48v.45Z"/><path class="cls-33" d="M165.09,398.15a1.91,1.91,0,0,0,1.23,2.05,3.09,3.09,0,0,0,3.82-1.48s.82.08,1-.57a.87.87,0,0,0-.95,0s0-.75-.39-.95a1.46,1.46,0,0,0-.14.74c0,.37.06.52-.25.51h-.58v-.71h-.67v-1.16h-.75V397h-1.28v.6h-.55v.51Z"/></g><path class="cls-34" d="M202.46,401.88c-1.1,0-2.21-.11-3.31-.19a23.88,23.88,0,0,0-3.17-.15,4.63,4.63,0,0,0-2.46,1.26,11.45,11.45,0,0,1-3,2,6.48,6.48,0,0,1-1.93.52,6.9,6.9,0,0,1-2-.1c-1.24-.25-2.21-.57-3.18-.7a5,5,0,0,0-2.46.05c-.28.1-.82.46-1.47.73a8.4,8.4,0,0,1-1.93.52,11.88,11.88,0,0,1-1.92.11,7,7,0,0,1-2.06-.41,11.61,11.61,0,0,1-3.1-2,4.1,4.1,0,0,0-1-.63,1.89,1.89,0,0,0-.47-.11,3.18,3.18,0,0,0-.62,0,8.44,8.44,0,0,0-2.72.79,14,14,0,0,1-3.35,1.15,4.61,4.61,0,0,1-2-.13,6.66,6.66,0,0,1-1.68-.77,7.61,7.61,0,0,0-2.76-1.38,4.94,4.94,0,0,0-3.06.55,4.84,4.84,0,0,1,3.11-1.38,8,8,0,0,1,3.37.89,3.63,3.63,0,0,0,2.63.3,15.19,15.19,0,0,0,2.74-1.33,9.34,9.34,0,0,1,3.49-1.31,8.67,8.67,0,0,1,1-.05,4.93,4.93,0,0,1,1.14.18,6.81,6.81,0,0,1,1.87.94,9.68,9.68,0,0,0,2.45,1.51,5,5,0,0,0,2.53.12,5.09,5.09,0,0,0,1.25-.3c.38-.13.75-.4,1.5-.7a5.61,5.61,0,0,1,2.18-.35,11.12,11.12,0,0,1,1.87.23c1.2.25,2.31.69,3.21.92a4.46,4.46,0,0,0,2.56,0,11.32,11.32,0,0,0,2.64-1.42,6.24,6.24,0,0,1,3.56-1.14,8.8,8.8,0,0,1,1.77.35l1.58.46C200.35,401.2,201.41,401.52,202.46,401.88Z"/><path class="cls-13" d="M336,403.44a27.18,27.18,0,0,1,0-3,3.09,3.09,0,0,1,2.21-1.33c1.37,0,3.06-.11,4-1.08s3.25-.77,3.25-.77l30.74.2a4.29,4.29,0,0,1,2.6,0c1,.48,2.24,1.65,3.09,1.62s4.41-.64,3.76,2.83l-41.46,5.71Z"/><path class="cls-14" d="M385.62,401.88s-2-.33-5.35-1-4.43,2-7.16,2.9-4.16-.52-7.28-.81-2.4,1.23-6.27,1.46-4.71-2.9-7.33-3-4.37,1.67-6.8,2.29-3.9-1.33-5.92-1.66A4.87,4.87,0,0,0,336,403s0,8.68,5.67,14.71c6,6.44,23.74,8.52,35.41,1.64C384,415.23,385.62,401.88,385.62,401.88Z"/><path class="cls-15" d="M346,406.37s-4.45,1.3-4.9,2.41,1.41,5.2,4.57,6.74,11.14,1.82,15.53-2.43,3.4-7.54,5.25-7.63,2.62,1.72,5.37.46a4.27,4.27,0,0,0-4.59-2.43,3.7,3.7,0,0,0,1.27-4.85,4.71,4.71,0,0,0-1.27.68Z"/><g class="cls-35"><path class="cls-17" d="M342,408a14.59,14.59,0,0,1,3.42-.25,33.85,33.85,0,0,0,4.75.53l-3.91-2.56Z"/><path class="cls-18" d="M350.14,413.31a3.72,3.72,0,0,0,3.47,3.05s-6.08.8-9-1.48-3.07-3.83-3.07-3.83a5.73,5.73,0,0,0,4.07,2.46A11.06,11.06,0,0,0,350.14,413.31Z"/><path class="cls-17" d="M348.08,408.18s4.29,2.17,4.91,3.46,4.36-2.35,4.36-2.35l-7.28-1.85Z"/></g><path class="cls-19" d="M346,406.37s-4.45,1.3-4.9,2.41,1.41,5.2,4.57,6.74,11.14,1.82,15.53-2.43,3.4-7.54,5.25-7.63,2.62,1.72,5.37.46a4.27,4.27,0,0,0-4.59-2.43,3.7,3.7,0,0,0,1.27-4.85,4.71,4.71,0,0,0-1.27.68Z"/><path class="cls-15" d="M343.57,398.84s-3.22.85-3.42,2.11.69,5.79,6.76,7,11.67,0,14.5-3.93a13.25,13.25,0,0,0,2.76-7.8,1.69,1.69,0,0,1,1.62-1.95c1.63-.29,3.15.2,4.29-1.56,0,0-3.05-2-5.26-.22a3.34,3.34,0,0,0-.72-4.94s-1.23.71-1.3,3.15.84,2.93-1.11,4.06Z"/><g class="cls-36"><path class="cls-21" d="M351.2,404.65a2.58,2.58,0,0,0,1.58,2.36c1.67.76,4.62.24,4.62.24l-4.68,2.49L341.65,407l-1.29-4.24a9.77,9.77,0,0,0,5.42,2.56A10.64,10.64,0,0,0,351.2,404.65Z"/><path class="cls-22" d="M346.71,403.29a8.77,8.77,0,0,1-1.28.44c-2.44.62-3.9-1.33-5.92-1.66A4.87,4.87,0,0,0,336,403l6.89-6.14,4.82,3.07,1.29,1.77Z"/></g><path class="cls-19" d="M343.57,398.84s-3.22.85-3.42,2.11.69,5.79,6.76,7,11.67,0,14.5-3.93a13.25,13.25,0,0,0,2.76-7.8,1.69,1.69,0,0,1,1.62-1.95c1.63-.29,3.15.2,4.29-1.56,0,0-3.05-2-5.26-.22a3.34,3.34,0,0,0-.72-4.94s-1.23.71-1.3,3.15.84,2.93-1.11,4.06Z"/><path class="cls-15" d="M350.1,400.2s-3.22.84-3.42,2.11.69,5.79,6.76,7,11.67,0,14.5-3.93a13.27,13.27,0,0,0,2.76-7.8,1.69,1.69,0,0,1,1.62-2c1.63-.29,3.16.19,4.29-1.56,0,0-3.05-2-5.26-.23a3.34,3.34,0,0,0-.72-4.94s-1.23.72-1.3,3.16.84,2.93-1.1,4.06Z"/><g class="cls-37"><path class="cls-21" d="M357.73,406a2.58,2.58,0,0,0,1.58,2.36c1.67.75,4.62.24,4.62.24l-4.68,2.49-11.07-2.78-1.29-4.23a9.77,9.77,0,0,0,5.42,2.56A10.77,10.77,0,0,0,357.73,406Z"/><path class="cls-22" d="M346.71,403.29c1.82-.77,3.37-1.93,5.52-1.85,1.54.07,2.47,1.17,3.75,2l6.52-2.06s-16.44-1.76-16.61-1.57A19.94,19.94,0,0,0,346.71,403.29Z"/></g><path class="cls-19" d="M350.1,400.2s-3.22.84-3.42,2.11.69,5.79,6.76,7,11.67,0,14.5-3.93a13.27,13.27,0,0,0,2.76-7.8,1.69,1.69,0,0,1,1.62-2c1.63-.29,3.16.19,4.29-1.56,0,0-3.05-2-5.26-.23a3.34,3.34,0,0,0-.72-4.94s-1.23.72-1.3,3.16.84,2.93-1.1,4.06Z"/><path class="cls-15" d="M357.77,409.42s-4.45,1.3-4.9,2.41,1.41,5.2,4.57,6.74,11.14,1.82,15.53-2.43,3.4-7.53,5.25-7.62,2.62,1.71,5.37.45a4.26,4.26,0,0,0-4.59-2.42,3.72,3.72,0,0,0,1.27-4.86,4.55,4.55,0,0,0-1.27.69Z"/><g class="cls-38"><path class="cls-18" d="M364,415.71s-.3,3.21,3.68,3.31c0,0-11.16,3.15-14.4-5.08a9,9,0,0,0,5.37,2.46A9.62,9.62,0,0,0,364,415.71Z"/><path class="cls-17" d="M353.72,411.05a14.34,14.34,0,0,1,3.42-.26,33.85,33.85,0,0,0,4.75.53L358,408.77Z"/></g><path class="cls-19" d="M357.77,409.42s-4.45,1.3-4.9,2.41,1.41,5.2,4.57,6.74,11.14,1.82,15.53-2.43,3.4-7.53,5.25-7.62,2.62,1.71,5.37.45a4.26,4.26,0,0,0-4.59-2.42,3.72,3.72,0,0,0,1.27-4.86,4.55,4.55,0,0,0-1.27.69Z"/><path class="cls-15" d="M358.75,402.24s-3.22.84-3.41,2.11.68,5.78,6.76,7,11.66,0,14.49-3.93a13.19,13.19,0,0,0,2.76-7.8,1.69,1.69,0,0,1,1.63-1.95c1.62-.3,3.15.19,4.29-1.56,0,0-3.06-2-5.27-.23a3.33,3.33,0,0,0-.71-4.94s-1.24.71-1.3,3.15.84,2.93-1.11,4.07Z"/><g class="cls-39"><path class="cls-18" d="M366.39,408A2.56,2.56,0,0,0,368,410.4c1.67.76,4.62.25,4.62.25l-4.69,2.48-11.06-2.77-1.3-4.24a9.75,9.75,0,0,0,5.43,2.56A10.67,10.67,0,0,0,366.39,408Z"/><path class="cls-22" d="M379.11,400.8a5.4,5.4,0,0,1,1.16.1c3.37.65,5.35,1,5.35,1l1.11-12.44s-15-1.83-15.53-1.57S356,403.46,356,403.46a5.55,5.55,0,0,0,3.58,1c3.87-.23,3.16-1.74,6.27-1.46s4.55,1.72,7.28.81c2.39-.8,3.5-2.92,6-3"/></g><path class="cls-19" d="M358.75,402.24s-3.22.84-3.41,2.11.68,5.78,6.76,7,11.66,0,14.49-3.93a13.19,13.19,0,0,0,2.76-7.8,1.69,1.69,0,0,1,1.63-1.95c1.62-.3,3.15.19,4.29-1.56,0,0-3.06-2-5.27-.23a3.33,3.33,0,0,0-.71-4.94s-1.24.71-1.3,3.15.84,2.93-1.11,4.07Z"/><ellipse class="cls-3" cx="368.23" cy="407.49" rx="1.28" ry="1.14"/><g class="cls-40"><circle cx="367.88" cy="406.96" r="0.78"/></g><ellipse class="cls-19" cx="368.23" cy="407.49" rx="1.28" ry="1.14"/><path class="cls-19" d="M355.54,406.12a9,9,0,0,0,5,2.51,11.53,11.53,0,0,0,5.83-.59"/><path class="cls-19" d="M353.24,413.94a8.79,8.79,0,0,0,5.37,2.46,9.48,9.48,0,0,0,5.35-.69"/><ellipse class="cls-3" cx="365.76" cy="415.23" rx="1.19" ry="1.13"/><g class="cls-41"><circle cx="365.52" cy="414.58" r="0.84"/></g><ellipse class="cls-19" cx="365.76" cy="415.23" rx="1.19" ry="1.13"/><path class="cls-19" d="M341.64,411.26a7.62,7.62,0,0,0,4.3,2.31,9.46,9.46,0,0,0,4.2-.26"/><ellipse class="cls-3" cx="352.04" cy="412.88" rx="1.2" ry="1.05"/><g class="cls-42"><ellipse cx="351.72" cy="412.14" rx="0.88" ry="1"/></g><ellipse class="cls-19" cx="352.04" cy="412.88" rx="1.2" ry="1.05"/><path class="cls-29" d="M342.8,394.86s1.07-.2,4.22-.49c0,0,13.6.57,16.94,1.15l-2.79,1.91Z"/><path class="cls-30" d="M360.15,402.5s14.78-2.05,16.64-2.28l.26-5.65a158,158,0,0,0-16.9,1.43"/><path class="cls-30" d="M364,395.52s.15-4.07.25-5.44a94.75,94.75,0,0,1,9.88-.29l-.26,4.89S364.93,395.4,364,395.52Z"/><path class="cls-30" d="M370.45,389.76a44.74,44.74,0,0,1,.39-5l3.67.39s-.36,3.4-.42,4.61C374.09,389.79,370.87,389.74,370.45,389.76Z"/><path class="cls-31" d="M353.91,389.44v-4.95l16.93.3a35.91,35.91,0,0,0-.39,5Z"/><path class="cls-31" d="M343,400.58c0,.1,13.06,1,17.16,1.92V396l-17.35-1.14Z"/><path class="cls-31" d="M347,394.37v-4.74l17.19.45-.25,5.44S352.28,394.47,347,394.37Z"/><path class="cls-29" d="M347,389.63s15.18-.51,23.43.13l-6.24.32Z"/><path class="cls-19" d="M364,395.52s-.15,4.76-.15,6.47"/><path class="cls-19" d="M367.3,389.93s-.21,8.89-.2,11.61"/><path class="cls-19" d="M370.45,389.76s-.38,7-.4,11.37"/><path class="cls-19" d="M373.83,394.68s-.33,4.52-.42,6.12"/><g class="cls-32"><path class="cls-33" d="M359.82,386.87a1.63,1.63,0,0,0,1.05,1.75,2.64,2.64,0,0,0,3.27-1.27s.71.08.88-.48a.73.73,0,0,0-.81,0s0-.64-.34-.82a1.24,1.24,0,0,0-.11.64c0,.32.05.44-.22.44H363v-.61h-.57v-1h-.64v.38h-1.1v.51h-.47v.44Z"/><path class="cls-33" d="M352.39,392.06a1.62,1.62,0,0,0,1.05,1.75,2.63,2.63,0,0,0,3.27-1.26s.7.07.88-.49a.75.75,0,0,0-.81,0s0-.64-.34-.81a1.28,1.28,0,0,0-.12.64c0,.31.05.44-.22.43h-.49v-.61H355v-1h-.64v.37H353.3v.51h-.48v.45Z"/><path class="cls-33" d="M348.25,398.15a1.91,1.91,0,0,0,1.23,2.05,3.09,3.09,0,0,0,3.82-1.48s.82.08,1-.57a.87.87,0,0,0-.95,0s0-.75-.39-.95a1.46,1.46,0,0,0-.14.74c.05.37.06.52-.25.51H352v-.71h-.67v-1.16h-.75V397h-1.28v.6h-.55v.51Z"/></g><path class="cls-34" d="M385.62,401.88c-1.1,0-2.21-.11-3.31-.19a23.81,23.81,0,0,0-3.16-.15,4.62,4.62,0,0,0-2.47,1.26,11.45,11.45,0,0,1-3,2,6.48,6.48,0,0,1-1.93.52,6.9,6.9,0,0,1-2-.1c-1.24-.25-2.21-.57-3.18-.7a5,5,0,0,0-2.46.05c-.27.1-.82.46-1.47.73a8.4,8.4,0,0,1-1.93.52,11.88,11.88,0,0,1-1.92.11,7,7,0,0,1-2.06-.41,11.78,11.78,0,0,1-3.1-2,4.1,4.1,0,0,0-1-.63,1.89,1.89,0,0,0-.47-.11,3.18,3.18,0,0,0-.62,0,8.44,8.44,0,0,0-2.72.79,14,14,0,0,1-3.35,1.15,4.61,4.61,0,0,1-2-.13,6.66,6.66,0,0,1-1.68-.77,7.65,7.65,0,0,0-2.75-1.38A5,5,0,0,0,336,403a4.84,4.84,0,0,1,3.11-1.38,8,8,0,0,1,3.37.89,3.63,3.63,0,0,0,2.63.3,15.19,15.19,0,0,0,2.74-1.33,9.34,9.34,0,0,1,3.49-1.31,8.67,8.67,0,0,1,1-.05,5.1,5.1,0,0,1,1.15.18,6.89,6.89,0,0,1,1.86.94,9.68,9.68,0,0,0,2.45,1.51,5,5,0,0,0,2.53.12,5.09,5.09,0,0,0,1.25-.3c.38-.13.75-.4,1.5-.7a5.61,5.61,0,0,1,2.18-.35,11.12,11.12,0,0,1,1.87.23c1.2.25,2.31.69,3.21.92a4.46,4.46,0,0,0,2.56,0,11.13,11.13,0,0,0,2.64-1.42,6.24,6.24,0,0,1,3.56-1.14,8.8,8.8,0,0,1,1.77.35l1.58.46C383.51,401.2,384.57,401.52,385.62,401.88Z"/><path class="cls-13" d="M522.38,403.44a28,28,0,0,1,0-3,3.06,3.06,0,0,1,2.21-1.33c1.36,0,3-.11,4-1.08s3.25-.77,3.25-.77l30.74.2a4.29,4.29,0,0,1,2.6,0c1,.48,2.25,1.65,3.09,1.62s4.42-.64,3.77,2.83l-41.47,5.71Z"/><path class="cls-14" d="M572,401.88s-2-.33-5.36-1-4.42,2-7.15,2.9-4.16-.52-7.28-.81-2.41,1.23-6.27,1.46-4.71-2.9-7.34-3-4.36,1.67-6.8,2.29-3.9-1.33-5.91-1.66a4.85,4.85,0,0,0-3.54.92s0,8.68,5.66,14.71c6,6.44,23.74,8.52,35.41,1.64C570.39,415.23,572,401.88,572,401.88Z"/><path class="cls-15" d="M532.39,406.37s-4.44,1.3-4.9,2.41,1.41,5.2,4.57,6.74,11.14,1.82,15.54-2.43,3.4-7.54,5.24-7.63,2.62,1.72,5.37.46a4.27,4.27,0,0,0-4.59-2.43,3.7,3.7,0,0,0,1.27-4.85,4.7,4.7,0,0,0-1.26.68Z"/><g class="cls-43"><path class="cls-17" d="M528.35,408a14.47,14.47,0,0,1,3.41-.25,34,34,0,0,0,4.76.53l-3.91-2.56Z"/><path class="cls-18" d="M536.53,413.31a3.73,3.73,0,0,0,3.47,3.05s-6.07.8-9-1.48-3.08-3.83-3.08-3.83a5.74,5.74,0,0,0,4.08,2.46A11,11,0,0,0,536.53,413.31Z"/><path class="cls-17" d="M534.47,408.18s4.3,2.17,4.91,3.46,4.37-2.35,4.37-2.35l-7.28-1.85Z"/></g><path class="cls-19" d="M532.39,406.37s-4.44,1.3-4.9,2.41,1.41,5.2,4.57,6.74,11.14,1.82,15.54-2.43,3.4-7.54,5.24-7.63,2.62,1.72,5.37.46a4.27,4.27,0,0,0-4.59-2.43,3.7,3.7,0,0,0,1.27-4.85,4.7,4.7,0,0,0-1.26.68Z"/><path class="cls-15" d="M530,398.84s-3.22.85-3.41,2.11.68,5.79,6.76,7S545,408,547.8,404a13.18,13.18,0,0,0,2.76-7.8,1.7,1.7,0,0,1,1.63-1.95c1.62-.29,3.15.2,4.29-1.56,0,0-3.06-2-5.27-.22a3.34,3.34,0,0,0-.71-4.94s-1.24.71-1.3,3.15.84,2.93-1.11,4.06Z"/><g class="cls-44"><path class="cls-21" d="M537.6,404.65a2.56,2.56,0,0,0,1.58,2.36c1.67.76,4.62.24,4.62.24l-4.69,2.49L528,407l-1.29-4.24a9.82,9.82,0,0,0,5.43,2.56A10.67,10.67,0,0,0,537.6,404.65Z"/><path class="cls-22" d="M533.11,403.29a9.33,9.33,0,0,1-1.29.44c-2.44.62-3.9-1.33-5.91-1.66a4.85,4.85,0,0,0-3.54.92l6.89-6.14,4.81,3.07,1.29,1.77Z"/></g><path class="cls-19" d="M530,398.84s-3.22.85-3.41,2.11.68,5.79,6.76,7S545,408,547.8,404a13.18,13.18,0,0,0,2.76-7.8,1.7,1.7,0,0,1,1.63-1.95c1.62-.29,3.15.2,4.29-1.56,0,0-3.06-2-5.27-.22a3.34,3.34,0,0,0-.71-4.94s-1.24.71-1.3,3.15.84,2.93-1.11,4.06Z"/><path class="cls-15" d="M536.49,400.2s-3.22.84-3.41,2.11.68,5.79,6.76,7,11.66,0,14.49-3.93a13.19,13.19,0,0,0,2.76-7.8,1.7,1.7,0,0,1,1.63-2c1.62-.29,3.15.19,4.29-1.56,0,0-3.06-2-5.27-.23a3.33,3.33,0,0,0-.71-4.94s-1.24.72-1.3,3.16.84,2.93-1.11,4.06Z"/><g class="cls-45"><path class="cls-21" d="M544.13,406a2.56,2.56,0,0,0,1.58,2.36c1.67.75,4.62.24,4.62.24l-4.69,2.49-11.06-2.78-1.3-4.23a9.82,9.82,0,0,0,5.43,2.56A10.8,10.8,0,0,0,544.13,406Z"/><path class="cls-22" d="M533.11,403.29c1.82-.77,3.37-1.93,5.51-1.85,1.54.07,2.47,1.17,3.76,2l6.52-2.06s-16.45-1.76-16.62-1.57A19.93,19.93,0,0,0,533.11,403.29Z"/></g><path class="cls-19" d="M536.49,400.2s-3.22.84-3.41,2.11.68,5.79,6.76,7,11.66,0,14.49-3.93a13.19,13.19,0,0,0,2.76-7.8,1.7,1.7,0,0,1,1.63-2c1.62-.29,3.15.19,4.29-1.56,0,0-3.06-2-5.27-.23a3.33,3.33,0,0,0-.71-4.94s-1.24.72-1.3,3.16.84,2.93-1.11,4.06Z"/><path class="cls-15" d="M544.16,409.42s-4.44,1.3-4.9,2.41,1.41,5.2,4.57,6.74,11.14,1.82,15.54-2.43,3.4-7.53,5.24-7.62,2.62,1.71,5.37.45a4.26,4.26,0,0,0-4.59-2.42,3.72,3.72,0,0,0,1.27-4.86,4.53,4.53,0,0,0-1.26.69Z"/><g class="cls-46"><path class="cls-18" d="M550.36,415.71s-.31,3.21,3.68,3.31c0,0-11.16,3.15-14.41-5.08A9,9,0,0,0,545,416.4,9.65,9.65,0,0,0,550.36,415.71Z"/><path class="cls-17" d="M540.12,411.05a14.22,14.22,0,0,1,3.41-.26,34,34,0,0,0,4.76.53l-3.91-2.55Z"/></g><path class="cls-19" d="M544.16,409.42s-4.44,1.3-4.9,2.41,1.41,5.2,4.57,6.74,11.14,1.82,15.54-2.43,3.4-7.53,5.24-7.62,2.62,1.71,5.37.45a4.26,4.26,0,0,0-4.59-2.42,3.72,3.72,0,0,0,1.27-4.86,4.53,4.53,0,0,0-1.26.69Z"/><path class="cls-15" d="M545.15,402.24s-3.22.84-3.42,2.11.69,5.78,6.76,7,11.67,0,14.5-3.93a13.27,13.27,0,0,0,2.76-7.8,1.68,1.68,0,0,1,1.62-1.95c1.63-.3,3.15.19,4.29-1.56,0,0-3-2-5.26-.23a3.34,3.34,0,0,0-.72-4.94s-1.23.71-1.3,3.15.84,2.93-1.11,4.07Z"/><g class="cls-47"><path class="cls-18" d="M552.78,408a2.58,2.58,0,0,0,1.58,2.36c1.67.76,4.62.25,4.62.25l-4.68,2.48-11.07-2.77-1.29-4.24a9.69,9.69,0,0,0,5.42,2.56A10.64,10.64,0,0,0,552.78,408Z"/><path class="cls-22" d="M565.5,400.8a5.35,5.35,0,0,1,1.16.1c3.38.65,5.36,1,5.36,1l1.1-12.44s-14.94-1.83-15.53-1.57-15.21,15.59-15.21,15.59a5.51,5.51,0,0,0,3.58,1c3.86-.23,3.15-1.74,6.27-1.46s4.55,1.72,7.28.81c2.39-.8,3.49-2.92,6-3"/></g><path class="cls-19" d="M545.15,402.24s-3.22.84-3.42,2.11.69,5.78,6.76,7,11.67,0,14.5-3.93a13.27,13.27,0,0,0,2.76-7.8,1.68,1.68,0,0,1,1.62-1.95c1.63-.3,3.15.19,4.29-1.56,0,0-3-2-5.26-.23a3.34,3.34,0,0,0-.72-4.94s-1.23.71-1.3,3.15.84,2.93-1.11,4.07Z"/><ellipse class="cls-3" cx="554.62" cy="407.49" rx="1.28" ry="1.14"/><g class="cls-48"><circle cx="554.28" cy="406.96" r="0.78"/></g><ellipse class="cls-19" cx="554.62" cy="407.49" rx="1.28" ry="1.14"/><path class="cls-19" d="M541.94,406.12a9,9,0,0,0,5,2.51,11.53,11.53,0,0,0,5.83-.59"/><path class="cls-19" d="M539.63,413.94A8.83,8.83,0,0,0,545,416.4a9.53,9.53,0,0,0,5.36-.69"/><ellipse class="cls-3" cx="552.15" cy="415.23" rx="1.19" ry="1.13"/><g class="cls-49"><circle cx="551.92" cy="414.58" r="0.84"/></g><ellipse class="cls-19" cx="552.15" cy="415.23" rx="1.19" ry="1.13"/><path class="cls-19" d="M528,411.26a7.62,7.62,0,0,0,4.3,2.31,9.46,9.46,0,0,0,4.2-.26"/><ellipse class="cls-3" cx="538.43" cy="412.88" rx="1.2" ry="1.05"/><g class="cls-50"><ellipse cx="538.12" cy="412.14" rx="0.88" ry="1"/></g><ellipse class="cls-19" cx="538.43" cy="412.88" rx="1.2" ry="1.05"/><path class="cls-29" d="M529.19,394.86s1.07-.2,4.22-.49c0,0,13.6.57,16.94,1.15l-2.79,1.91Z"/><path class="cls-30" d="M546.54,402.5s14.79-2.05,16.64-2.28l.26-5.65a158,158,0,0,0-16.9,1.43"/><path class="cls-30" d="M550.35,395.52s.16-4.07.25-5.44a94.75,94.75,0,0,1,9.88-.29l-.26,4.89S551.33,395.4,550.35,395.52Z"/><path class="cls-30" d="M556.84,389.76a44.74,44.74,0,0,1,.39-5l3.68.39s-.36,3.4-.43,4.61C560.48,389.79,557.27,389.74,556.84,389.76Z"/><path class="cls-31" d="M540.3,389.44v-4.95l16.93.3a37.89,37.89,0,0,0-.39,5Z"/><path class="cls-31" d="M529.38,400.58c0,.1,13.07,1,17.16,1.92V396l-17.35-1.14Z"/><path class="cls-31" d="M533.41,394.37v-4.74l17.19.45-.25,5.44S538.68,394.47,533.41,394.37Z"/><path class="cls-29" d="M533.41,389.63s15.18-.51,23.43.13l-6.24.32Z"/><path class="cls-19" d="M550.35,395.52s-.15,4.76-.14,6.47"/><path class="cls-19" d="M553.69,389.93s-.21,8.89-.2,11.61"/><path class="cls-19" d="M556.84,389.76s-.38,7-.4,11.37"/><path class="cls-19" d="M560.22,394.68s-.32,4.52-.42,6.12"/><g class="cls-32"><path class="cls-33" d="M546.22,386.87a1.62,1.62,0,0,0,1,1.75,2.64,2.64,0,0,0,3.27-1.27s.7.08.88-.48a.74.74,0,0,0-.82,0s0-.64-.33-.82a1.32,1.32,0,0,0-.12.64c0,.32.05.44-.22.44h-.5v-.61h-.57v-1h-.64v.38h-1.09v.51h-.48v.44Z"/><path class="cls-33" d="M538.78,392.06a1.63,1.63,0,0,0,1.05,1.75,2.63,2.63,0,0,0,3.27-1.26s.71.07.88-.49a.75.75,0,0,0-.81,0s0-.64-.34-.81a1.28,1.28,0,0,0-.12.64c0,.31.06.44-.21.43H542v-.61h-.57v-1h-.64v.37h-1.1v.51h-.47v.45Z"/><path class="cls-33" d="M534.65,398.15a1.9,1.9,0,0,0,1.22,2.05,3.09,3.09,0,0,0,3.82-1.48s.82.08,1-.57a.87.87,0,0,0-1,0s0-.75-.4-.95a1.51,1.51,0,0,0-.13.74c0,.37.06.52-.26.51h-.58v-.71h-.67v-1.16H537V397h-1.28v.6h-.56v.51Z"/></g><path class="cls-34" d="M572,401.88c-1.11,0-2.21-.11-3.32-.19a23.74,23.74,0,0,0-3.16-.15,4.66,4.66,0,0,0-2.47,1.26,11.28,11.28,0,0,1-3,2,6.41,6.41,0,0,1-1.92.52,7,7,0,0,1-2-.1c-1.24-.25-2.21-.57-3.18-.7a5,5,0,0,0-2.45.05c-.28.1-.83.46-1.47.73a8.54,8.54,0,0,1-1.93.52,11.94,11.94,0,0,1-1.93.11,7,7,0,0,1-2.05-.41,11.45,11.45,0,0,1-3.1-2,4.49,4.49,0,0,0-1-.63,2,2,0,0,0-.47-.11,3.21,3.21,0,0,0-.62,0,8.3,8.3,0,0,0-2.72.79,14.1,14.1,0,0,1-3.36,1.15,4.63,4.63,0,0,1-2-.13,6.66,6.66,0,0,1-1.68-.77,7.57,7.57,0,0,0-2.75-1.38,4.92,4.92,0,0,0-3.06.55,4.81,4.81,0,0,1,3.1-1.38,8.09,8.09,0,0,1,3.38.89,3.62,3.62,0,0,0,2.63.3,15.45,15.45,0,0,0,2.73-1.33,9.47,9.47,0,0,1,3.49-1.31,8.77,8.77,0,0,1,1-.05,4.93,4.93,0,0,1,1.15.18,6.6,6.6,0,0,1,1.86.94,9.68,9.68,0,0,0,2.45,1.51,6.78,6.78,0,0,0,3.78-.18c.39-.13.76-.4,1.5-.7a5.63,5.63,0,0,1,2.19-.35,11,11,0,0,1,1.86.23c1.21.25,2.31.69,3.22.92a4.46,4.46,0,0,0,2.56,0,11.32,11.32,0,0,0,2.64-1.42,6.24,6.24,0,0,1,3.56-1.14,8.7,8.7,0,0,1,1.76.35l1.59.46C569.91,401.2,571,401.52,572,401.88Z"/><path class="cls-13" d="M224.45,179.56a28.17,28.17,0,0,1,0-3,3.06,3.06,0,0,1,2.21-1.32c1.36,0,3-.11,4-1.08s3.25-.77,3.25-.77l30.74.2a4.29,4.29,0,0,1,2.6,0c1,.48,2.24,1.65,3.08,1.62s4.42-.64,3.77,2.83l-41.47,5.71Z"/><path class="cls-14" d="M274.09,178s-2-.33-5.35-1-4.43,2-7.16,2.89-4.16-.52-7.28-.8-2.4,1.23-6.27,1.45-4.71-2.89-7.34-3-4.36,1.67-6.79,2.29-3.9-1.33-5.92-1.66a4.87,4.87,0,0,0-3.54.92s0,8.68,5.67,14.71c6,6.44,23.74,8.51,35.4,1.63C272.47,191.35,274.09,178,274.09,178Z"/><path class="cls-15" d="M234.47,182.49s-4.45,1.3-4.9,2.41,1.4,5.2,4.57,6.73,11.13,1.82,15.53-2.42,3.4-7.54,5.24-7.63,2.62,1.71,5.38.46a4.29,4.29,0,0,0-4.6-2.43,3.7,3.7,0,0,0,1.28-4.85,4.71,4.71,0,0,0-1.27.68Z"/><g class="cls-51"><path class="cls-17" d="M230.42,184.11a14.54,14.54,0,0,1,3.41-.25,34.2,34.2,0,0,0,4.76.53l-3.91-2.56Z"/><path class="cls-18" d="M238.61,189.43a3.73,3.73,0,0,0,3.46,3s-6.07.8-9-1.48-3.07-3.83-3.07-3.83a5.73,5.73,0,0,0,4.07,2.46A11.06,11.06,0,0,0,238.61,189.43Z"/><path class="cls-17" d="M236.55,184.3s4.29,2.17,4.9,3.46,4.37-2.35,4.37-2.35l-7.28-1.85Z"/></g><path class="cls-19" d="M234.47,182.49s-4.45,1.3-4.9,2.41,1.4,5.2,4.57,6.73,11.13,1.82,15.53-2.42,3.4-7.54,5.24-7.63,2.62,1.71,5.38.46a4.29,4.29,0,0,0-4.6-2.43,3.7,3.7,0,0,0,1.28-4.85,4.71,4.71,0,0,0-1.27.68Z"/><path class="cls-15" d="M232,175s-3.21.85-3.41,2.11.68,5.79,6.76,7,11.67,0,14.49-3.93a13.3,13.3,0,0,0,2.77-7.8,1.69,1.69,0,0,1,1.62-2c1.63-.29,3.15.2,4.29-1.56,0,0-3.05-2-5.26-.23a3.34,3.34,0,0,0-.72-4.94s-1.23.72-1.3,3.16.84,2.93-1.11,4.06Z"/><g class="cls-52"><path class="cls-21" d="M239.67,180.77a2.56,2.56,0,0,0,1.58,2.36c1.67.76,4.62.24,4.62.24l-4.68,2.49-11.07-2.78-1.29-4.23a9.77,9.77,0,0,0,5.42,2.56A10.64,10.64,0,0,0,239.67,180.77Z"/><path class="cls-22" d="M235.18,179.41a9.2,9.2,0,0,1-1.28.44c-2.44.62-3.9-1.33-5.92-1.66a4.87,4.87,0,0,0-3.54.92l6.89-6.15,4.82,3.08,1.29,1.77Z"/></g><path class="cls-19" d="M232,175s-3.21.85-3.41,2.11.68,5.79,6.76,7,11.67,0,14.49-3.93a13.3,13.3,0,0,0,2.77-7.8,1.69,1.69,0,0,1,1.62-2c1.63-.29,3.15.2,4.29-1.56,0,0-3.05-2-5.26-.23a3.34,3.34,0,0,0-.72-4.94s-1.23.72-1.3,3.16.84,2.93-1.11,4.06Z"/><path class="cls-15" d="M238.56,176.32s-3.21.84-3.41,2.11.68,5.79,6.76,7,11.67,0,14.49-3.93a13.32,13.32,0,0,0,2.77-7.8,1.69,1.69,0,0,1,1.62-1.95c1.63-.29,3.15.19,4.29-1.56,0,0-3.05-2-5.26-.23a3.34,3.34,0,0,0-.72-4.94s-1.23.72-1.3,3.15.84,2.93-1.11,4.07Z"/><g class="cls-53"><path class="cls-21" d="M246.2,182.12a2.57,2.57,0,0,0,1.58,2.37c1.67.75,4.62.24,4.62.24l-4.68,2.49-11.07-2.78-1.29-4.23a9.77,9.77,0,0,0,5.42,2.56A10.7,10.7,0,0,0,246.2,182.12Z"/><path class="cls-22" d="M235.18,179.41c1.82-.77,3.37-1.94,5.51-1.85,1.55.07,2.47,1.17,3.76,2l6.52-2.07s-16.44-1.75-16.61-1.56A19.94,19.94,0,0,0,235.18,179.41Z"/></g><path class="cls-19" d="M238.56,176.32s-3.21.84-3.41,2.11.68,5.79,6.76,7,11.67,0,14.49-3.93a13.32,13.32,0,0,0,2.77-7.8,1.69,1.69,0,0,1,1.62-1.95c1.63-.29,3.15.19,4.29-1.56,0,0-3.05-2-5.26-.23a3.34,3.34,0,0,0-.72-4.94s-1.23.72-1.3,3.15.84,2.93-1.11,4.07Z"/><path class="cls-15" d="M246.24,185.54s-4.45,1.3-4.9,2.41,1.4,5.2,4.57,6.74,11.13,1.82,15.53-2.43,3.4-7.54,5.24-7.62,2.62,1.71,5.38.45a4.27,4.27,0,0,0-4.6-2.42,3.72,3.72,0,0,0,1.28-4.86,4.55,4.55,0,0,0-1.27.69Z"/><g class="cls-54"><path class="cls-18" d="M252.43,191.83s-.31,3.21,3.68,3.31c0,0-11.16,3.15-14.41-5.08a9.06,9.06,0,0,0,5.38,2.46A9.62,9.62,0,0,0,252.43,191.83Z"/><path class="cls-17" d="M242.19,187.17a14.29,14.29,0,0,1,3.41-.26,34.2,34.2,0,0,0,4.76.53l-3.91-2.56Z"/></g><path class="cls-19" d="M246.24,185.54s-4.45,1.3-4.9,2.41,1.4,5.2,4.57,6.74,11.13,1.82,15.53-2.43,3.4-7.54,5.24-7.62,2.62,1.71,5.38.45a4.27,4.27,0,0,0-4.6-2.42,3.72,3.72,0,0,0,1.28-4.86,4.55,4.55,0,0,0-1.27.69Z"/><path class="cls-15" d="M247.22,178.36s-3.22.84-3.41,2.11.68,5.78,6.76,7,11.66,0,14.49-3.94a13.15,13.15,0,0,0,2.76-7.79,1.69,1.69,0,0,1,1.63-1.95c1.62-.3,3.15.19,4.29-1.56,0,0-3.06-2-5.27-.23a3.34,3.34,0,0,0-.71-4.94s-1.24.71-1.3,3.15.83,2.93-1.11,4.07Z"/><g class="cls-55"><path class="cls-18" d="M254.86,184.16a2.56,2.56,0,0,0,1.58,2.36c1.66.76,4.62.25,4.62.25l-4.69,2.48-11.07-2.77L244,182.24a9.74,9.74,0,0,0,5.42,2.56A10.69,10.69,0,0,0,254.86,184.16Z"/><path class="cls-22" d="M267.57,176.92a5.44,5.44,0,0,1,1.17.1c3.37.65,5.35,1,5.35,1l1.11-12.44s-14.95-1.83-15.54-1.57-15.21,15.59-15.21,15.59a5.45,5.45,0,0,0,3.58,1c3.87-.22,3.15-1.73,6.27-1.45s4.55,1.71,7.28.8c2.39-.79,3.5-2.91,6-3"/></g><path class="cls-19" d="M247.22,178.36s-3.22.84-3.41,2.11.68,5.78,6.76,7,11.66,0,14.49-3.94a13.15,13.15,0,0,0,2.76-7.79,1.69,1.69,0,0,1,1.63-1.95c1.62-.3,3.15.19,4.29-1.56,0,0-3.06-2-5.27-.23a3.34,3.34,0,0,0-.71-4.94s-1.24.71-1.3,3.15.83,2.93-1.11,4.07Z"/><ellipse class="cls-3" cx="256.7" cy="183.61" rx="1.28" ry="1.14"/><g class="cls-56"><circle cx="256.35" cy="183.08" r="0.78"/></g><ellipse class="cls-19" cx="256.7" cy="183.61" rx="1.28" ry="1.14"/><path class="cls-19" d="M244,182.24a9,9,0,0,0,5,2.51,11.53,11.53,0,0,0,5.83-.59"/><path class="cls-19" d="M241.7,190.06a8.9,8.9,0,0,0,5.38,2.46,9.48,9.48,0,0,0,5.35-.69"/><ellipse class="cls-3" cx="254.23" cy="191.35" rx="1.19" ry="1.13"/><g class="cls-57"><circle cx="253.99" cy="190.7" r="0.84"/></g><ellipse class="cls-19" cx="254.23" cy="191.35" rx="1.19" ry="1.13"/><path class="cls-19" d="M230.11,187.38a7.57,7.57,0,0,0,4.29,2.31,9.53,9.53,0,0,0,4.21-.26"/><ellipse class="cls-3" cx="240.51" cy="189" rx="1.2" ry="1.05"/><g class="cls-58"><ellipse cx="240.19" cy="188.26" rx="0.88" ry="1"/></g><ellipse class="cls-19" cx="240.51" cy="189" rx="1.2" ry="1.05"/><path class="cls-29" d="M231.26,171s1.08-.2,4.23-.49c0,0,13.6.57,16.94,1.14l-2.8,1.92Z"/><path class="cls-30" d="M248.62,178.61s14.78-2,16.63-2.27l.26-5.65a158,158,0,0,0-16.89,1.43"/><path class="cls-30" d="M252.43,171.63s.15-4.06.25-5.43a94.59,94.59,0,0,1,9.88-.29l-.26,4.89S253.4,171.52,252.43,171.63Z"/><path class="cls-30" d="M258.92,165.88a45.06,45.06,0,0,1,.39-5l3.67.39s-.36,3.41-.42,4.62C262.56,165.91,259.34,165.86,258.92,165.88Z"/><path class="cls-31" d="M242.38,165.56v-4.95l16.93.29a36,36,0,0,0-.39,5Z"/><path class="cls-31" d="M231.46,176.7c0,.1,13.06,1,17.16,1.91v-6.49L231.26,171Z"/><path class="cls-31" d="M235.49,170.49v-4.74l17.19.45-.25,5.43S240.75,170.59,235.49,170.49Z"/><path class="cls-29" d="M235.49,165.75s15.17-.51,23.43.13l-6.24.32Z"/><path class="cls-19" d="M252.43,171.63s-.16,4.77-.15,6.48"/><path class="cls-19" d="M255.76,166s-.2,8.9-.2,11.62"/><path class="cls-19" d="M258.92,165.88s-.39,7-.41,11.37"/><path class="cls-19" d="M262.3,170.8s-.33,4.52-.43,6.12"/><g class="cls-32"><path class="cls-33" d="M248.29,163a1.63,1.63,0,0,0,1.05,1.76,2.64,2.64,0,0,0,3.27-1.27s.71.08.88-.49a.75.75,0,0,0-.81,0s0-.63-.34-.81a1.32,1.32,0,0,0-.12.64c.05.32.06.44-.21.44h-.5v-.61h-.58v-1h-.64V162H249.2v.51h-.48V163Z"/><path class="cls-33" d="M240.86,168.18a1.62,1.62,0,0,0,1,1.75,2.65,2.65,0,0,0,3.27-1.26s.7.07.88-.49a.77.77,0,0,0-.82,0s0-.64-.33-.81a1.15,1.15,0,0,0-.12.63c0,.32.05.45-.22.44h-.5v-.61h-.57v-1h-.64v.38h-1.09v.51h-.48v.45Z"/><path class="cls-33" d="M236.72,174.27a1.88,1.88,0,0,0,1.23,2,3.07,3.07,0,0,0,3.81-1.47s.83.08,1-.57a.87.87,0,0,0-.95,0s0-.75-.39-1a1.46,1.46,0,0,0-.14.74c.05.37.06.52-.25.51h-.59v-.71h-.67V172.7h-.74v.44h-1.28v.6h-.55v.51Z"/></g><path class="cls-34" d="M274.09,178c-1.11,0-2.21-.11-3.32-.19a23.66,23.66,0,0,0-3.16-.15,4.63,4.63,0,0,0-2.46,1.26,11.45,11.45,0,0,1-3,2,6.39,6.39,0,0,1-3.92.42c-1.25-.25-2.21-.57-3.18-.7a5,5,0,0,0-2.46,0c-.28.1-.82.46-1.47.73a8.4,8.4,0,0,1-1.93.52,11.88,11.88,0,0,1-1.92.11,7,7,0,0,1-2.06-.41,11.61,11.61,0,0,1-3.1-2,4.29,4.29,0,0,0-1-.63,1.89,1.89,0,0,0-.47-.11,3.18,3.18,0,0,0-.62,0,8.44,8.44,0,0,0-2.72.79,14.4,14.4,0,0,1-3.36,1.15,4.58,4.58,0,0,1-2-.13,7,7,0,0,1-1.68-.77,7.61,7.61,0,0,0-2.76-1.38,4.94,4.94,0,0,0-3.06.55,4.79,4.79,0,0,1,3.11-1.38,7.93,7.93,0,0,1,3.37.89,3.63,3.63,0,0,0,2.63.3,15.19,15.19,0,0,0,2.74-1.33,9.34,9.34,0,0,1,3.49-1.31,8.6,8.6,0,0,1,1-.05,4.93,4.93,0,0,1,1.15.18,6.6,6.6,0,0,1,1.86.94,10,10,0,0,0,2.45,1.51,5,5,0,0,0,2.54.12,5.2,5.2,0,0,0,1.25-.3c.38-.13.75-.4,1.5-.7a5.43,5.43,0,0,1,2.18-.35,11.25,11.25,0,0,1,1.87.23c1.2.25,2.3.69,3.21.92a4.46,4.46,0,0,0,2.56,0,11.32,11.32,0,0,0,2.64-1.42,6.24,6.24,0,0,1,3.56-1.14,8.7,8.7,0,0,1,1.76.35l1.59.46C272,177.31,273,177.64,274.09,178Z"/><line class="cls-12" x1="222.47" y1="305.46" x2="222.47" y2="267.39"/><polygon class="cls-59" points="226.45 304.29 222.47 311.2 218.48 304.29 226.45 304.29"/><polygon class="cls-59" points="226.45 268.56 222.47 261.65 218.48 268.56 226.45 268.56"/><line class="cls-12" x1="340.13" y1="305.46" x2="340.13" y2="267.39"/><polygon class="cls-59" points="344.12 304.29 340.13 311.2 336.14 304.29 344.12 304.29"/><polygon class="cls-59" points="344.12 268.56 340.13 261.65 336.14 268.56 344.12 268.56"/><line class="cls-12" x1="457.79" y1="305.46" x2="457.79" y2="267.39"/><polygon class="cls-59" points="461.78 304.29 457.79 311.2 453.8 304.29 461.78 304.29"/><polygon class="cls-59" points="461.78 268.56 457.79 261.65 453.8 268.56 461.78 268.56"/><line class="cls-12" x1="575.46" y1="305.46" x2="575.46" y2="267.39"/><polygon class="cls-59" points="579.45 304.29 575.46 311.2 571.47 304.29 579.45 304.29"/><polygon class="cls-59" points="579.45 268.56 575.46 261.65 571.47 268.56 579.45 268.56"/></g></svg>